<svg width="22" height="22" viewBox="0 0 22 22" fill="none" xmlns="http://www.w3.org/2000/svg">
<path fill-rule="evenodd" clip-rule="evenodd" d="M10.1014 1.0373C8.173 1.22621 6.39073 1.93703 4.82808 3.14042C4.0671 3.72644 3.07886 4.82777 2.50776 5.72617C2.26112 6.11417 1.78101 7.09738 1.60901 7.5666C1.41671 8.09128 1.21175 8.89308 1.11089 9.51523C0.987451 10.2767 0.987451 11.7225 1.11089 12.484C1.28542 13.5605 1.56151 14.4307 2.03409 15.3941C2.55042 16.4467 3.0873 17.1928 3.94702 18.0525C4.80679 18.9123 5.55288 19.4491 6.60542 19.9655C7.56886 20.438 8.43909 20.7141 9.51558 20.8887C10.2771 21.0121 11.7228 21.0121 12.4843 20.8887C13.5608 20.7141 14.431 20.438 15.3945 19.9655C16.447 19.4491 17.1931 18.9123 18.0529 18.0525C18.9126 17.1928 19.4495 16.4467 19.9658 15.3941C20.3087 14.695 20.4812 14.2368 20.666 13.5342C20.9121 12.5985 20.9745 12.0855 20.9745 10.9996C20.9745 9.91367 20.9121 9.40074 20.666 8.46503C20.4812 7.76242 20.3087 7.30421 19.9658 6.60507C19.4495 5.55253 18.9126 4.80644 18.0529 3.94667C17.1931 3.08695 16.447 2.55007 15.3945 2.03374C14.432 1.5616 13.5445 1.27992 12.5039 1.11621C11.9297 1.02589 10.6476 0.983783 10.1014 1.0373ZM11.8986 3.2448C13.2984 3.41035 14.6046 3.93921 15.746 4.80273C16.1474 5.10632 16.8932 5.85218 17.1968 6.25351C18.9836 8.61546 19.3077 11.6871 18.0509 14.3484C17.8439 14.7868 17.5142 15.3262 17.1968 15.7457C16.8932 16.147 16.1474 16.8929 15.746 17.1965C13.3841 18.9833 10.3125 19.3074 7.65112 18.0506C6.85249 17.6734 6.16233 17.1811 5.49042 16.5091C4.43921 15.458 3.77249 14.2818 3.41901 12.8551C2.85265 10.5692 3.35655 8.16566 4.80308 6.25351C5.10667 5.85218 5.85253 5.10632 6.25386 4.80273C7.8939 3.56203 9.89972 3.00847 11.8986 3.2448ZM10.8242 6.00503C10.5869 6.06042 10.39 6.21792 10.2786 6.44136L10.1796 6.63996L10.1799 9.0639C10.18 10.6866 10.1941 11.5395 10.2225 11.6441C10.2585 11.7765 10.5228 12.0593 11.9508 13.4928C12.878 14.4236 13.6982 15.2167 13.7734 15.2551C14.3396 15.5445 15.023 15.1399 15.023 14.5152C15.023 14.1928 15.0071 14.1738 13.3989 12.5614L11.8593 11.0178L11.8585 8.83097C11.8577 6.79359 11.8527 6.63347 11.7859 6.48788C11.6121 6.10894 11.2209 5.91249 10.8242 6.00503Z" fill="white" stroke="#DCEBFC" stroke-width="0.3"/>
</svg>
