<svg width="33" height="33" viewBox="0 0 33 33" fill="none" xmlns="http://www.w3.org/2000/svg">
<path fill-rule="evenodd" clip-rule="evenodd" d="M6.59497 1.07346C6.14533 1.27327 6.00103 1.60494 6.00103 2.43832V2.9858L4.57872 2.98686C2.97203 2.98812 2.57509 3.04507 1.89982 3.3713C1.32727 3.64795 0.666252 4.30227 0.391292 4.8647C-0.0242743 5.71484 0.00110858 4.86213 0.000108269 17.9961C-0.000829522 29.6793 0.00160874 29.9211 0.123271 30.397C0.283384 31.023 0.555218 31.4952 1.02718 31.9671C1.49914 32.4391 1.97128 32.7109 2.59729 32.871C3.07375 32.9929 3.31908 32.9951 16.0041 32.9951C28.6734 32.9951 28.9351 32.9927 29.4092 32.8715C30.0622 32.7045 30.4591 32.4785 30.9495 31.9948C31.4506 31.5006 31.7208 31.039 31.885 30.397C32.0067 29.9211 32.0091 29.6793 32.0082 17.9961C32.0072 4.86213 32.0325 5.71484 31.617 4.8647C31.3451 4.30859 30.6813 3.64895 30.1156 3.37286C29.4489 3.04745 29.0372 2.98812 27.4365 2.98686L26.0211 2.9858L25.9977 2.30153C25.9782 1.73279 25.9526 1.58824 25.8462 1.4457C25.4089 0.86008 24.6546 0.846013 24.2736 1.41644C24.1478 1.60469 24.1317 1.70603 24.1317 2.30734V2.9858H22.0373H19.9429V2.35861C19.9429 1.63038 19.8634 1.38337 19.5592 1.16642C19.2808 0.967801 18.7804 0.95761 18.529 1.14536C18.1546 1.42488 18.1002 1.56405 18.0774 2.30247L18.0562 2.9858H16.0041H13.9521L13.9309 2.30247C13.908 1.56405 13.8537 1.42488 13.4793 1.14536C13.2278 0.95761 12.7275 0.967801 12.4491 1.16642C12.1449 1.38337 12.0654 1.63038 12.0654 2.35861V2.9858H9.97101H7.87661V2.30734C7.87661 1.70603 7.86048 1.60469 7.7347 1.41644C7.47968 1.0347 7.00409 0.89159 6.59497 1.07346ZM6.01122 5.53347C6.03886 6.30558 6.12663 6.51896 6.50406 6.73109C6.95158 6.98261 7.48649 6.84469 7.75189 6.4093C7.85548 6.23944 7.87618 6.09377 7.87636 5.53347L7.87661 4.86138H9.97101H12.0654L12.0657 5.53347C12.0659 6.09377 12.0865 6.23944 12.1901 6.4093C12.571 7.034 13.4687 7.0063 13.8003 6.3596C13.9179 6.13022 13.941 5.98498 13.941 5.47332V4.86138H16.0041H18.0673V5.47332C18.0673 5.98498 18.0903 6.13022 18.2079 6.3596C18.5395 7.0063 19.4373 7.034 19.8181 6.4093C19.9217 6.23944 19.9424 6.09377 19.9426 5.53347L19.9429 4.86138H22.0373H24.1317L24.1319 5.53347C24.1322 6.29095 24.2136 6.50815 24.5844 6.74103C24.8398 6.90146 25.3425 6.88157 25.5843 6.70152C25.8971 6.46857 25.9711 6.25857 25.9972 5.52947L26.0214 4.85332L27.4991 4.87301L28.9769 4.89264L29.3113 5.07783C29.6577 5.26976 29.931 5.59868 30.0611 5.98042C30.1077 6.11709 30.1335 6.70277 30.1335 7.62155V9.05019H16.0041H1.87475V7.62155C1.87475 6.69339 1.90039 6.11853 1.9479 5.98042C2.05843 5.65944 2.28563 5.34722 2.52833 5.18292C2.95346 4.89514 3.13627 4.86701 4.60304 4.86414L5.98722 4.86138L6.01122 5.53347ZM30.1335 20.3551C30.1335 30.9505 30.1711 30.1343 29.6597 30.6457C29.1434 31.162 30.3676 31.1195 16.0041 31.1195C1.64068 31.1195 2.86487 31.162 2.34859 30.6457C1.83718 30.1343 1.87475 30.9505 1.87475 20.3551V10.9258H16.0041H30.1335V20.3551ZM5.0001 14.1924C4.88644 14.2698 4.73458 14.4125 4.66262 14.5096C4.53545 14.6812 4.53183 14.7503 4.53183 16.9902C4.53183 19.2301 4.53545 19.2992 4.66262 19.4707C4.73458 19.5678 4.88644 19.7105 5.0001 19.7879C5.20504 19.9274 5.22585 19.9286 7.47024 19.9286C9.71462 19.9286 9.73544 19.9274 9.94038 19.7879C10.054 19.7105 10.2059 19.5678 10.2779 19.4707C10.405 19.2991 10.4086 19.23 10.4086 16.9902C10.4086 14.7503 10.405 14.6812 10.2779 14.5096C10.2059 14.4125 10.054 14.2698 9.94038 14.1924C9.73544 14.0529 9.71462 14.0517 7.47024 14.0517C5.22585 14.0517 5.20504 14.0529 5.0001 14.1924ZM22.0679 14.1924C21.9542 14.2698 21.8024 14.4125 21.7304 14.5096C21.6032 14.6812 21.5996 14.7503 21.5996 16.9902C21.5996 19.23 21.6032 19.2991 21.7304 19.4707C21.8024 19.5678 21.9542 19.7105 22.0679 19.7879C22.2728 19.9274 22.2936 19.9286 24.538 19.9286C26.7824 19.9286 26.8032 19.9274 27.0082 19.7879C27.1218 19.7105 27.2737 19.5678 27.3457 19.4707C27.4728 19.2991 27.4764 19.23 27.4764 16.9902C27.4764 14.7503 27.4728 14.6812 27.3457 14.5096C27.2737 14.4125 27.1218 14.2698 27.0082 14.1924C26.8032 14.0529 26.7824 14.0517 24.538 14.0517C22.2936 14.0517 22.2728 14.0529 22.0679 14.1924ZM17.851 14.6784C17.7374 14.7136 17.2119 15.1892 16.4917 15.9086L15.3175 17.0816L14.895 16.6673C14.6625 16.4394 14.3824 16.2078 14.2723 16.1526C13.5333 15.7822 12.7086 16.5591 13.0071 17.3444C13.0437 17.4405 13.443 17.8922 13.8945 18.3482C14.8385 19.3015 15.072 19.4391 15.5217 19.307C15.7412 19.2425 16.0455 18.9715 17.3394 17.6878C18.1942 16.8399 18.9327 16.0556 18.9806 15.945C19.2908 15.2279 18.5955 14.4483 17.851 14.6784ZM8.56433 16.9902V18.053H7.47024H6.37615V16.9902V15.9273H7.47024H8.56433V16.9902ZM25.6321 16.9902V18.053H24.538H23.4439V16.9902V15.9273H24.538H25.6321V16.9902ZM5.17209 22.142C4.85636 22.2568 4.75171 22.3522 4.61704 22.6482C4.51432 22.8741 4.50319 23.1037 4.50194 25.0263C4.50057 27.1102 4.50351 27.1601 4.64124 27.4333C4.74402 27.6371 4.85705 27.7501 5.06087 27.8529C5.33389 27.9906 5.38522 27.9936 7.47024 27.9936C9.55563 27.9936 9.60653 27.9906 9.87817 27.8529C10.0425 27.7696 10.2073 27.623 10.2822 27.4934C10.4027 27.2848 10.4086 27.1693 10.4086 25.0239C10.4086 22.8728 10.403 22.7636 10.2814 22.5566C10.2114 22.4375 10.0567 22.2827 9.93756 22.2127C9.73244 22.0922 9.60659 22.0847 7.56402 22.071C5.86805 22.0597 5.35689 22.0749 5.17209 22.142ZM13.7296 22.1174C13.6306 22.1479 13.4802 22.2376 13.3955 22.3167C13.0668 22.6236 13.0657 22.6328 13.0657 25.0428C13.0657 27.2676 13.067 27.2892 13.2064 27.494C13.2838 27.6077 13.4265 27.7596 13.5236 27.8315C13.6952 27.9587 13.7643 27.9623 16.0041 27.9623C18.244 27.9623 18.3131 27.9587 18.4847 27.8315C18.5818 27.7596 18.7245 27.6077 18.8019 27.494C18.9414 27.2891 18.9425 27.2683 18.9425 25.0239C18.9425 22.7795 18.9414 22.7587 18.8019 22.5538C18.7245 22.4401 18.5818 22.2882 18.4848 22.2163C18.3144 22.09 18.2331 22.0851 16.109 22.0737C14.8994 22.0672 13.8287 22.0869 13.7296 22.1174ZM22.2248 22.1466C21.9169 22.2575 21.7189 22.4776 21.6299 22.808C21.5857 22.9721 21.5687 23.7914 21.5809 25.1671C21.6023 27.5754 21.6046 27.5865 22.1301 27.8529C22.4017 27.9906 22.4526 27.9936 24.538 27.9936C26.6231 27.9936 26.6744 27.9906 26.9474 27.8529C27.1512 27.7501 27.2643 27.6371 27.367 27.4333C27.5047 27.1602 27.5077 27.1089 27.5077 25.0239C27.5077 21.8793 27.7145 22.0917 24.6318 22.071C22.8843 22.0593 22.4274 22.0737 22.2248 22.1466ZM8.53307 25.0239V26.0867H7.47024H6.40741L6.39015 25.0889C6.38059 24.5401 6.38703 24.0542 6.40434 24.009C6.42904 23.9446 6.66355 23.9305 7.48449 23.9439L8.53307 23.9611V25.0239ZM17.067 25.0239V26.118H16.0041H14.9413V25.0239V23.9298H16.0041H17.067V25.0239ZM25.6009 25.0239V26.0867H24.538H23.4752L23.4579 25.0889C23.4484 24.5401 23.4548 24.0542 23.4721 24.009C23.4968 23.9446 23.7313 23.9305 24.5523 23.9439L25.6009 23.9611V25.0239Z" fill="white"/>
</svg>
