<svg width="32" height="33" viewBox="0 0 32 33" fill="none" xmlns="http://www.w3.org/2000/svg">
<path fill-rule="evenodd" clip-rule="evenodd" d="M5.7043 1.07779C3.00158 1.624 0.868103 3.63478 0.154821 6.3081L0 6.88833V17.0021V27.1158L0.158111 27.7108C0.381173 28.5502 0.982399 29.7313 1.53729 30.4202C2.42422 31.5213 3.87262 32.4546 5.28435 32.8349L5.87927 32.9951H15.993H26.1068L26.687 32.8403C28.1706 32.4444 29.5119 31.5835 30.4398 30.4314C30.9999 29.7358 31.5949 28.568 31.8258 27.7108L31.9861 27.1158V17.0021V6.88833L31.8258 6.29341C31.5949 5.43622 30.9999 4.26835 30.4398 3.57277C29.5268 2.43919 28.2155 1.58936 26.7247 1.16521L26.1768 1.00927L16.168 0.99758C8.14259 0.988131 6.06909 1.00402 5.7043 1.07779ZM26.06 3.32031C27.4314 3.64367 28.6667 4.63307 29.2913 5.90845C29.8091 6.96581 29.7792 6.28529 29.7803 16.9976C29.7815 27.7495 29.8157 26.9957 29.275 28.1292C29.041 28.6197 28.881 28.8336 28.3528 29.3619C27.8246 29.89 27.6107 30.0501 27.1202 30.2841C25.9867 30.8248 26.7405 30.7905 15.9885 30.7893C5.25285 30.7882 5.96802 30.8204 4.86587 30.2878C4.37957 30.0527 4.15693 29.8855 3.63325 29.3619C3.10958 28.8382 2.94237 28.6155 2.70734 28.1292C2.17456 27.027 2.20683 27.7432 2.20683 17.0021C2.20683 6.26198 2.17456 6.97918 2.70699 5.87346C2.94237 5.3845 3.10706 5.16487 3.63143 4.64049C4.15546 4.11647 4.37586 3.95115 4.86489 3.71534C5.94717 3.19349 5.21772 3.22597 15.958 3.22065C24.2897 3.21652 25.6777 3.23023 26.06 3.32031ZM10.1306 10.7725C9.80425 10.9715 9.62437 11.3025 9.62409 11.7049C9.62395 11.8902 9.6586 12.1107 9.70115 12.1948C9.74371 12.2789 10.8223 13.3949 12.0979 14.6749L14.4175 17.0021L12.0979 19.3293C10.8223 20.6093 9.74371 21.7253 9.70115 21.8094C9.6586 21.8935 9.62395 22.114 9.62409 22.2993C9.62458 22.9299 10.0652 23.3705 10.6958 23.371C10.8811 23.3712 11.1016 23.3365 11.1857 23.294C11.2698 23.2514 12.3859 22.1728 13.6658 20.8972L15.993 18.5777L18.3202 20.8972C19.6002 22.1728 20.7163 23.2514 20.8003 23.294C20.8844 23.3365 21.1049 23.3712 21.2903 23.371C21.9209 23.3705 22.3615 22.9299 22.362 22.2993C22.3621 22.114 22.3275 21.8935 22.2849 21.8094C22.2423 21.7253 21.1638 20.6093 19.8881 19.3293L17.5686 17.0021L19.8922 14.6749C21.1701 13.3949 22.2487 12.259 22.289 12.1506C22.6245 11.2482 21.7469 10.3706 20.8445 10.7062C20.7361 10.7464 19.6002 11.825 18.3202 13.1029L15.993 15.4265L13.6658 13.107C12.3859 11.8313 11.2698 10.7528 11.1857 10.7102C10.9372 10.5845 10.3856 10.6171 10.1306 10.7725Z" fill="white"/>
</svg>
