<svg width="180" height="48" viewBox="0 0 180 48" fill="none" xmlns="http://www.w3.org/2000/svg">
<path d="M14.0329 27.5954H9.11397L16.6089 5.76423H22.5243L30.0086 27.5954H25.0897L19.6514 10.753H19.4818L14.0329 27.5954ZM13.7254 19.0143H25.3442V22.6173H13.7254V19.0143Z" fill="#4A95E6"/>
<path d="M37.212 5.76423V27.5954H32.6218V5.76423H37.212Z" fill="#4A95E6"/>
<path d="M40.9886 27.5954V5.76423H49.5543C51.1939 5.76423 52.5933 6.05915 53.7523 6.64899C54.9184 7.23172 55.8054 8.05963 56.4132 9.13271C57.028 10.1987 57.3355 11.453 57.3355 12.8956C57.3355 14.3453 57.0245 15.5925 56.4026 16.6372C55.7806 17.6747 54.8795 18.4706 53.6993 19.0249C52.5261 19.5792 51.1056 19.8564 49.4377 19.8564H43.7025V16.1468H48.6956C49.572 16.1468 50.2999 16.026 50.8794 15.7844C51.4589 15.5428 51.89 15.1803 52.1727 14.6971C52.4625 14.2138 52.6074 13.6133 52.6074 12.8956C52.6074 12.1707 52.4625 11.5596 52.1727 11.0621C51.89 10.5647 51.4554 10.188 50.8688 9.93219C50.2893 9.66925 49.5578 9.53778 48.6744 9.53778H45.5789V27.5954H40.9886ZM52.7134 17.6605L58.1093 27.5954H53.042L47.7627 17.6605H52.7134Z" fill="#4A95E6"/>
<path d="M60.5794 27.5954V5.76423H69.145C70.7917 5.76423 72.1946 6.08047 73.3536 6.71295C74.5127 7.33832 75.3961 8.20886 76.0039 9.32458C76.6187 10.4332 76.9262 11.7124 76.9262 13.1621C76.9262 14.6118 76.6152 15.891 75.9933 16.9996C75.3714 18.1082 74.4703 18.9716 73.29 19.5899C72.1168 20.2082 70.6963 20.5173 69.0284 20.5173H63.5689V16.8184H68.2863C69.1697 16.8184 69.8977 16.6656 70.4701 16.36C71.0497 16.0473 71.4808 15.6174 71.7635 15.0702C72.0532 14.5159 72.1981 13.8798 72.1981 13.1621C72.1981 12.4372 72.0532 11.8047 71.7635 11.2647C71.4808 10.7175 71.0497 10.2946 70.4701 9.99614C69.8906 9.69056 69.1556 9.53778 68.2651 9.53778H65.1696V27.5954H60.5794Z" fill="#4A95E6"/>
<path d="M99.8589 16.6798C99.8589 19.0605 99.4101 21.0858 98.5125 22.7558C97.622 24.4259 96.4065 25.7015 94.8658 26.5827C93.3322 27.4568 91.6077 27.8938 89.6925 27.8938C87.7631 27.8938 86.0316 27.4532 84.498 26.572C82.9643 25.6908 81.7523 24.4152 80.8618 22.7452C79.9713 21.0752 79.5261 19.0534 79.5261 16.6798C79.5261 14.2991 79.9713 12.2738 80.8618 10.6037C81.7523 8.93372 82.9643 7.66166 84.498 6.78757C86.0316 5.90636 87.7631 5.46576 89.6925 5.46576C91.6077 5.46576 93.3322 5.90636 94.8658 6.78757C96.4065 7.66166 97.622 8.93372 98.5125 10.6037C99.4101 12.2738 99.8589 14.2991 99.8589 16.6798ZM95.205 16.6798C95.205 15.1377 94.9753 13.8372 94.5159 12.7783C94.0636 11.7195 93.424 10.9164 92.5972 10.3692C91.7703 9.82204 90.802 9.54844 89.6925 9.54844C88.5829 9.54844 87.6147 9.82204 86.7878 10.3692C85.9609 10.9164 85.3178 11.7195 84.8584 12.7783C84.4061 13.8372 84.1799 15.1377 84.1799 16.6798C84.1799 18.2219 84.4061 19.5224 84.8584 20.5813C85.3178 21.6401 85.9609 22.4431 86.7878 22.9903C87.6147 23.5375 88.5829 23.8111 89.6925 23.8111C90.802 23.8111 91.7703 23.5375 92.5972 22.9903C93.424 22.4431 94.0636 21.6401 94.5159 20.5813C94.9753 19.5224 95.205 18.2219 95.205 16.6798Z" fill="#4A95E6"/>
<path d="M103.259 27.5954V5.76423H111.825C113.464 5.76423 114.864 6.05915 116.023 6.64899C117.189 7.23172 118.076 8.05963 118.684 9.13271C119.299 10.1987 119.606 11.453 119.606 12.8956C119.606 14.3453 119.295 15.5925 118.673 16.6372C118.051 17.6747 117.15 18.4706 115.97 19.0249C114.797 19.5792 113.376 19.8564 111.708 19.8564H105.973V16.1468H110.966C111.842 16.1468 112.57 16.026 113.15 15.7844C113.729 15.5428 114.161 15.1803 114.443 14.6971C114.733 14.2138 114.878 13.6133 114.878 12.8956C114.878 12.1707 114.733 11.5596 114.443 11.0621C114.161 10.5647 113.726 10.188 113.139 9.93219C112.56 9.66925 111.828 9.53778 110.945 9.53778H107.849V27.5954H103.259ZM114.984 17.6605L120.38 27.5954H115.313L110.033 17.6605H114.984Z" fill="#4A95E6"/>
<path d="M122.023 9.56975V5.76423H139.854V9.56975H133.207V27.5954H128.67V9.56975H122.023Z" fill="#4A95E6"/>
<path d="M142.79 27.5954V5.76423H147.381V23.7898H156.688V27.5954H142.79Z" fill="#4A95E6"/>
<path d="M164.024 27.5954H159.105L166.6 5.76423H172.516L180 27.5954H175.081L169.643 10.753H169.473L164.024 27.5954ZM163.717 19.0143H175.336V22.6173H163.717V19.0143Z" fill="#4A95E6"/>
<path d="M14.0329 27.5954H9.11397L16.6089 5.76423H22.5243L30.0086 27.5954H25.0897L19.6514 10.753H19.4818L14.0329 27.5954ZM13.7254 19.0143H25.3442V22.6173H13.7254V19.0143Z" fill="#B062AD"/>
<path d="M37.212 5.76423V27.5954H32.6218V5.76423H37.212Z" fill="#B062AD"/>
<path d="M40.9887 27.5954V5.76423H49.5543C51.1939 5.76423 52.5933 6.05915 53.7523 6.64899C54.9184 7.23172 55.8054 8.05963 56.4132 9.13271C57.028 10.1987 57.3355 11.453 57.3355 12.8956C57.3355 14.3453 57.0245 15.5925 56.4026 16.6372C55.7806 17.6747 54.8796 18.4706 53.6993 19.0249C52.5261 19.5792 51.1056 19.8564 49.4377 19.8564H43.7025V16.1468H48.6956C49.572 16.1468 50.2999 16.026 50.8794 15.7844C51.4589 15.5428 51.8901 15.1803 52.1727 14.6971C52.4625 14.2138 52.6074 13.6133 52.6074 12.8956C52.6074 12.1707 52.4625 11.5596 52.1727 11.0621C51.8901 10.5647 51.4554 10.188 50.8688 9.93219C50.2893 9.66925 49.5578 9.53778 48.6744 9.53778H45.5789V27.5954H40.9887ZM52.7134 17.6605L58.1093 27.5954H53.042L47.7627 17.6605H52.7134Z" fill="#B062AD"/>
<path d="M60.5794 27.5954V5.76423H69.145C70.7917 5.76423 72.1946 6.08047 73.3536 6.71295C74.5127 7.33832 75.3961 8.20886 76.0039 9.32458C76.6187 10.4332 76.9262 11.7124 76.9262 13.1621C76.9262 14.6118 76.6152 15.891 75.9933 16.9996C75.3714 18.1082 74.4703 18.9716 73.29 19.5899C72.1168 20.2082 70.6963 20.5173 69.0284 20.5173H63.5689V16.8184H68.2863C69.1697 16.8184 69.8977 16.6656 70.4701 16.36C71.0497 16.0473 71.4808 15.6174 71.7635 15.0702C72.0532 14.5159 72.1981 13.8798 72.1981 13.1621C72.1981 12.4372 72.0532 11.8047 71.7635 11.2647C71.4808 10.7175 71.0497 10.2946 70.4701 9.99614C69.8906 9.69056 69.1556 9.53778 68.2651 9.53778H65.1696V27.5954H60.5794Z" fill="#B062AD"/>
<path d="M99.8589 16.6798C99.8589 19.0605 99.4101 21.0858 98.5126 22.7558C97.6221 24.4259 96.4065 25.7015 94.8658 26.5827C93.3322 27.4568 91.6077 27.8938 89.6925 27.8938C87.7631 27.8938 86.0316 27.4532 84.498 26.572C82.9644 25.6908 81.7523 24.4152 80.8618 22.7452C79.9713 21.0752 79.5261 19.0534 79.5261 16.6798C79.5261 14.2991 79.9713 12.2738 80.8618 10.6037C81.7523 8.93372 82.9644 7.66166 84.498 6.78757C86.0316 5.90636 87.7631 5.46576 89.6925 5.46576C91.6077 5.46576 93.3322 5.90636 94.8658 6.78757C96.4065 7.66166 97.6221 8.93372 98.5126 10.6037C99.4101 12.2738 99.8589 14.2991 99.8589 16.6798ZM95.205 16.6798C95.205 15.1377 94.9753 13.8372 94.516 12.7783C94.0636 11.7195 93.424 10.9164 92.5972 10.3692C91.7703 9.82204 90.8021 9.54844 89.6925 9.54844C88.5829 9.54844 87.6147 9.82204 86.7878 10.3692C85.9609 10.9164 85.3178 11.7195 84.8584 12.7783C84.4061 13.8372 84.1799 15.1377 84.1799 16.6798C84.1799 18.2219 84.4061 19.5224 84.8584 20.5813C85.3178 21.6401 85.9609 22.4431 86.7878 22.9903C87.6147 23.5375 88.5829 23.8111 89.6925 23.8111C90.8021 23.8111 91.7703 23.5375 92.5972 22.9903C93.424 22.4431 94.0636 21.6401 94.516 20.5813C94.9753 19.5224 95.205 18.2219 95.205 16.6798Z" fill="#B062AD"/>
<path d="M103.259 27.5954V5.76423H111.825C113.464 5.76423 114.864 6.05915 116.023 6.64899C117.189 7.23172 118.076 8.05963 118.684 9.13271C119.299 10.1987 119.606 11.453 119.606 12.8956C119.606 14.3453 119.295 15.5925 118.673 16.6372C118.051 17.6747 117.15 18.4706 115.97 19.0249C114.797 19.5792 113.376 19.8564 111.708 19.8564H105.973V16.1468H110.966C111.842 16.1468 112.57 16.026 113.15 15.7844C113.729 15.5428 114.161 15.1803 114.443 14.6971C114.733 14.2138 114.878 13.6133 114.878 12.8956C114.878 12.1707 114.733 11.5596 114.443 11.0621C114.161 10.5647 113.726 10.188 113.139 9.93219C112.56 9.66925 111.828 9.53778 110.945 9.53778H107.849V27.5954H103.259ZM114.984 17.6605L120.38 27.5954H115.313L110.033 17.6605H114.984Z" fill="#B062AD"/>
<path d="M122.023 9.56975V5.76423H139.854V9.56975H133.207V27.5954H128.67V9.56975H122.023Z" fill="#B062AD"/>
<path d="M10 45.3353V36.3594H15.7191V37.5252H11.3915V40.26H15.3093V41.4215H11.3915V45.3353H10Z" fill="white"/>
<path d="M18.6688 36.3594V45.3353H17.3223V36.3594H18.6688Z" fill="white"/>
<path d="M20.4802 45.3353V38.6034H21.8267V45.3353H20.4802ZM21.1602 37.5646C20.926 37.5646 20.7249 37.4887 20.5567 37.3367C20.3916 37.1819 20.3091 36.9978 20.3091 36.7845C20.3091 36.5683 20.3916 36.3842 20.5567 36.2323C20.7249 36.0774 20.926 36 21.1602 36C21.3944 36 21.594 36.0774 21.7591 36.2323C21.9272 36.3842 22.0113 36.5683 22.0113 36.7845C22.0113 36.9978 21.9272 37.1819 21.7591 37.3367C21.594 37.4887 21.3944 37.5646 21.1602 37.5646Z" fill="white"/>
<path d="M26.5382 48C25.9888 48 25.516 47.9299 25.1197 47.7896C24.7264 47.6494 24.4052 47.4638 24.156 47.233C23.9068 47.0022 23.7207 46.7495 23.5976 46.4748L24.7549 46.0102C24.836 46.1388 24.944 46.2747 25.0791 46.4178C25.2172 46.5639 25.4034 46.6881 25.6375 46.7904C25.8747 46.8926 26.1794 46.9438 26.5517 46.9438C27.0621 46.9438 27.4839 46.8225 27.8171 46.58C28.1504 46.3404 28.317 45.9576 28.317 45.4317V44.1081H28.2314C28.1504 44.2513 28.0333 44.4105 27.8802 44.5858C27.7301 44.7611 27.5229 44.9131 27.2587 45.0416C26.9945 45.1702 26.6508 45.2345 26.2275 45.2345C25.6811 45.2345 25.1887 45.1103 24.7504 44.8619C24.3151 44.6107 23.9698 44.2411 23.7147 43.7531C23.4625 43.2622 23.3364 42.6589 23.3364 41.943C23.3364 41.2272 23.461 40.6136 23.7102 40.1023C23.9623 39.5909 24.3076 39.1994 24.7459 38.9277C25.1842 38.653 25.6811 38.5157 26.2365 38.5157C26.6658 38.5157 27.0125 38.5858 27.2767 38.7261C27.5409 38.8634 27.7466 39.0241 27.8937 39.2082C28.0438 39.3923 28.1594 39.5544 28.2404 39.6947H28.3395V38.6034H29.6589V45.4843C29.6589 46.0628 29.5208 46.5376 29.2446 46.9087C28.9684 47.2798 28.5947 47.5544 28.1233 47.7327C27.655 47.9109 27.1266 48 26.5382 48ZM26.5247 44.1476C26.912 44.1476 27.2392 44.0599 27.5064 43.8846C27.7766 43.7064 27.9807 43.4522 28.1188 43.122C28.2599 42.7889 28.3305 42.3901 28.3305 41.9255C28.3305 41.4726 28.2614 41.0738 28.1233 40.729C27.9852 40.3842 27.7826 40.1154 27.5154 39.9226C27.2482 39.7268 26.918 39.6289 26.5247 39.6289C26.1194 39.6289 25.7816 39.7312 25.5115 39.9357C25.2413 40.1373 25.0371 40.412 24.899 40.7597C24.7639 41.1074 24.6964 41.496 24.6964 41.9255C24.6964 42.3667 24.7654 42.7538 24.9035 43.0869C25.0416 43.42 25.2458 43.6801 25.516 43.8671C25.7892 44.0541 26.1254 44.1476 26.5247 44.1476Z" fill="white"/>
<path d="M32.8112 41.3382V45.3353H31.4648V36.3594H32.7932V39.6991H32.8788C33.0409 39.3367 33.2886 39.0489 33.6218 38.8356C33.955 38.6224 34.3904 38.5157 34.9278 38.5157C35.4021 38.5157 35.8164 38.6107 36.1706 38.8006C36.5279 38.9905 36.8041 39.2739 36.9992 39.6508C37.1974 40.0248 37.2965 40.4923 37.2965 41.0533V45.3353H35.95V41.2111C35.95 40.7173 35.8194 40.3346 35.5582 40.0628C35.297 39.7882 34.9338 39.6508 34.4684 39.6508C34.1502 39.6508 33.865 39.7166 33.6128 39.8481C33.3636 39.9795 33.167 40.1724 33.0229 40.4266C32.8818 40.6779 32.8112 40.9817 32.8112 41.3382Z" fill="white"/>
<path d="M42.3221 38.6034V39.6552H38.5439V38.6034H42.3221ZM39.5571 36.9905H40.9036V43.3587C40.9036 43.6129 40.9426 43.8042 41.0207 43.9328C41.0987 44.0584 41.1993 44.1446 41.3224 44.1914C41.4485 44.2352 41.5851 44.2571 41.7322 44.2571C41.8402 44.2571 41.9348 44.2498 42.0159 44.2352C42.0969 44.2206 42.16 44.2089 42.205 44.2001L42.4482 45.2827C42.3701 45.3119 42.259 45.3411 42.1149 45.3703C41.9708 45.4025 41.7907 45.42 41.5746 45.4229C41.2203 45.4288 40.8901 45.3674 40.5838 45.2389C40.2776 45.1103 40.0299 44.9116 39.8408 44.6428C39.6517 44.374 39.5571 44.0365 39.5571 43.6304V36.9905Z" fill="white"/>
<path d="M48.8833 40.2469L47.6629 40.4573C47.6119 40.3053 47.5309 40.1607 47.4198 40.0234C47.3117 39.886 47.1646 39.7736 46.9785 39.6859C46.7923 39.5982 46.5597 39.5544 46.2805 39.5544C45.8992 39.5544 45.5809 39.6377 45.3258 39.8042C45.0706 39.9679 44.943 40.1797 44.943 40.4397C44.943 40.6647 45.0285 40.8459 45.1997 40.9832C45.3708 41.1205 45.647 41.233 46.0283 41.3207L47.1271 41.5661C47.7635 41.7093 48.2379 41.9299 48.5501 42.2279C48.8623 42.5259 49.0184 42.9131 49.0184 43.3893C49.0184 43.7926 48.8983 44.1519 48.6582 44.4675C48.421 44.7801 48.0893 45.0256 47.6629 45.2038C47.2396 45.382 46.7488 45.4711 46.1904 45.4711C45.4158 45.4711 44.7839 45.3104 44.2945 44.989C43.8052 44.6647 43.5049 44.2045 43.3939 43.6085L44.6953 43.4156C44.7764 43.7458 44.943 43.9956 45.1952 44.1651C45.4473 44.3316 45.7761 44.4149 46.1814 44.4149C46.6227 44.4149 46.9754 44.3258 47.2396 44.1476C47.5038 43.9664 47.6359 43.7458 47.6359 43.4858C47.6359 43.2754 47.5549 43.0986 47.3928 42.9554C47.2336 42.8123 46.989 42.7042 46.6587 42.6311L45.4879 42.3813C44.8424 42.2381 44.3651 42.0102 44.0558 41.6976C43.7496 41.385 43.5965 40.989 43.5965 40.5099C43.5965 40.1125 43.7106 39.7648 43.9388 39.4668C44.1669 39.1687 44.4822 38.9365 44.8844 38.7699C45.2867 38.6004 45.7476 38.5157 46.2669 38.5157C47.0145 38.5157 47.6029 38.6735 48.0322 38.989C48.4615 39.3017 48.7452 39.721 48.8833 40.2469Z" fill="white"/>
<path d="M71.609 45.3353H70.1319L73.4508 36.3594H75.0585L78.3774 45.3353H76.9003L74.2929 37.9898H74.2209L71.609 45.3353ZM71.8567 41.8203H76.6481V42.9598H71.8567V41.8203Z" fill="white"/>
<path d="M79.6631 45.3353V38.6034H81.0095V45.3353H79.6631ZM80.343 37.5646C80.1089 37.5646 79.9077 37.4887 79.7396 37.3367C79.5745 37.1819 79.4919 36.9978 79.4919 36.7845C79.4919 36.5683 79.5745 36.3842 79.7396 36.2323C79.9077 36.0774 80.1089 36 80.343 36C80.5772 36 80.7769 36.0774 80.942 36.2323C81.1101 36.3842 81.1942 36.5683 81.1942 36.7845C81.1942 36.9978 81.1101 37.1819 80.942 37.3367C80.7769 37.4887 80.5772 37.5646 80.343 37.5646Z" fill="white"/>
<path d="M82.821 45.3353V38.6034H84.1224V39.6728H84.1945C84.3205 39.3104 84.5427 39.0256 84.8609 38.8181C85.1822 38.6077 85.5454 38.5026 85.9507 38.5026C86.0348 38.5026 86.1339 38.5055 86.2479 38.5113C86.365 38.5172 86.4566 38.5245 86.5226 38.5332V39.7867C86.4686 39.7721 86.3725 39.756 86.2344 39.7385C86.0963 39.718 85.9582 39.7078 85.8201 39.7078C85.5019 39.7078 85.2182 39.7736 84.969 39.905C84.7228 40.0336 84.5277 40.2133 84.3836 40.4441C84.2395 40.672 84.1674 40.9321 84.1674 41.2243V45.3353H82.821Z" fill="white"/>
<path d="M89.0343 36.3594V45.3353H87.6879V36.3594H89.0343Z" fill="white"/>
<path d="M90.8458 45.3353V38.6034H92.1922V45.3353H90.8458ZM91.5257 37.5646C91.2916 37.5646 91.0904 37.4887 90.9223 37.3367C90.7572 37.1819 90.6746 36.9978 90.6746 36.7845C90.6746 36.5683 90.7572 36.3842 90.9223 36.2323C91.0904 36.0774 91.2916 36 91.5257 36C91.7599 36 91.9596 36.0774 92.1247 36.2323C92.2928 36.3842 92.3769 36.5683 92.3769 36.7845C92.3769 36.9978 92.2928 37.1819 92.1247 37.3367C91.9596 37.4887 91.7599 37.5646 91.5257 37.5646Z" fill="white"/>
<path d="M95.3501 41.3382V45.3353H94.0037V38.6034H95.2961V39.6991H95.3817C95.5408 39.3426 95.79 39.0562 96.1292 38.84C96.4715 38.6238 96.9023 38.5157 97.4216 38.5157C97.893 38.5157 98.3058 38.6121 98.66 38.805C99.0143 38.9949 99.289 39.2783 99.4841 39.6552C99.6793 40.0321 99.7768 40.4982 99.7768 41.0533V45.3353H98.4304V41.2111C98.4304 40.7232 98.2998 40.3419 98.0386 40.0672C97.7774 39.7896 97.4186 39.6508 96.9623 39.6508C96.6501 39.6508 96.3724 39.7166 96.1292 39.8481C95.889 39.9795 95.6984 40.1724 95.5573 40.4266C95.4192 40.6779 95.3501 40.9817 95.3501 41.3382Z" fill="white"/>
<path d="M104.564 45.4711C103.882 45.4711 103.295 45.3294 102.803 45.046C102.314 44.7597 101.935 44.3579 101.668 43.8408C101.404 43.3207 101.272 42.7115 101.272 42.0131C101.272 41.3236 101.404 40.7159 101.668 40.1899C101.935 39.664 102.308 39.2535 102.785 38.9584C103.265 38.6633 103.827 38.5157 104.469 38.5157C104.86 38.5157 105.238 38.5785 105.604 38.7042C105.97 38.8298 106.299 39.027 106.59 39.2958C106.881 39.5646 107.111 39.9138 107.279 40.3433C107.447 40.7699 107.531 41.2885 107.531 41.8992V42.3638H102.033V41.382H106.212C106.212 41.0373 106.14 40.7319 105.996 40.466C105.852 40.1972 105.649 39.9854 105.388 39.8305C105.13 39.6757 104.826 39.5982 104.478 39.5982C104.1 39.5982 103.77 39.6888 103.488 39.87C103.208 40.0482 102.992 40.282 102.839 40.5712C102.689 40.8576 102.614 41.1687 102.614 41.5047V42.2717C102.614 42.7217 102.695 43.1045 102.857 43.42C103.022 43.7356 103.252 43.9766 103.546 44.1432C103.84 44.3068 104.184 44.3886 104.577 44.3886C104.832 44.3886 105.065 44.3535 105.275 44.2834C105.485 44.2104 105.667 44.1023 105.82 43.9591C105.973 43.8159 106.09 43.6392 106.171 43.4288L107.446 43.6523C107.344 44.0175 107.161 44.3375 106.896 44.6121C106.635 44.8839 106.307 45.0957 105.91 45.2476C105.517 45.3966 105.068 45.4711 104.564 45.4711Z" fill="white"/>
<path d="M114.209 40.2469L112.988 40.4573C112.937 40.3053 112.856 40.1607 112.745 40.0234C112.637 39.886 112.49 39.7736 112.304 39.6859C112.118 39.5982 111.885 39.5544 111.606 39.5544C111.224 39.5544 110.906 39.6377 110.651 39.8042C110.396 39.9679 110.268 40.1797 110.268 40.4397C110.268 40.6647 110.354 40.8459 110.525 40.9832C110.696 41.1205 110.972 41.233 111.354 41.3207L112.452 41.5661C113.089 41.7093 113.563 41.9299 113.875 42.2279C114.188 42.5259 114.344 42.9131 114.344 43.3893C114.344 43.7926 114.224 44.1519 113.983 44.4675C113.746 44.7801 113.415 45.0256 112.988 45.2038C112.565 45.382 112.074 45.4711 111.516 45.4711C110.741 45.4711 110.109 45.3104 109.62 44.989C109.13 44.6647 108.83 44.2045 108.719 43.6085L110.021 43.4156C110.102 43.7458 110.268 43.9956 110.52 44.1651C110.773 44.3316 111.101 44.4149 111.507 44.4149C111.948 44.4149 112.301 44.3258 112.565 44.1476C112.829 43.9664 112.961 43.7458 112.961 43.4858C112.961 43.2754 112.88 43.0986 112.718 42.9554C112.559 42.8123 112.314 42.7042 111.984 42.6311L110.813 42.3813C110.168 42.2381 109.69 42.0102 109.381 41.6976C109.075 41.385 108.922 40.989 108.922 40.5099C108.922 40.1125 109.036 39.7648 109.264 39.4668C109.492 39.1687 109.807 38.9365 110.21 38.7699C110.612 38.6004 111.073 38.5157 111.592 38.5157C112.34 38.5157 112.928 38.6735 113.358 38.989C113.787 39.3017 114.071 39.721 114.209 40.2469Z" fill="white"/>
<path d="M136.155 45.3353V36.3594H139.443C140.16 36.3594 140.755 36.4865 141.226 36.7407C141.697 36.9949 142.05 37.3426 142.284 37.7838C142.518 38.2221 142.635 38.7159 142.635 39.2652C142.635 39.8174 142.517 40.3141 142.28 40.7553C142.045 41.1936 141.691 41.5413 141.217 41.7984C140.746 42.0526 140.153 42.1797 139.438 42.1797H137.177V41.0314H139.312C139.765 41.0314 140.133 40.9554 140.415 40.8035C140.698 40.6486 140.905 40.4383 141.037 40.1724C141.169 39.9065 141.235 39.6041 141.235 39.2652C141.235 38.9262 141.169 38.6253 141.037 38.3623C140.905 38.0993 140.696 37.8934 140.411 37.7443C140.129 37.5953 139.756 37.5208 139.294 37.5208H137.547V45.3353H136.155Z" fill="white"/>
<path d="M146.11 45.4843C145.671 45.4843 145.275 45.4054 144.921 45.2476C144.567 45.0869 144.286 44.8546 144.079 44.5508C143.875 44.2469 143.772 43.8744 143.772 43.4332C143.772 43.0533 143.848 42.7407 143.998 42.4953C144.148 42.2498 144.35 42.0555 144.606 41.9123C144.861 41.7692 145.146 41.6611 145.461 41.588C145.776 41.515 146.098 41.4595 146.425 41.4215C146.839 41.3747 147.175 41.3367 147.434 41.3075C147.692 41.2754 147.879 41.2243 147.997 41.1541C148.114 41.084 148.172 40.9701 148.172 40.8123V40.7816C148.172 40.3988 148.061 40.1023 147.839 39.8919C147.62 39.6815 147.293 39.5763 146.857 39.5763C146.404 39.5763 146.047 39.6742 145.785 39.87C145.527 40.0628 145.349 40.2776 145.25 40.5142L143.984 40.2337C144.134 39.8247 144.353 39.4945 144.642 39.2432C144.933 38.989 145.268 38.805 145.646 38.691C146.024 38.5741 146.422 38.5157 146.839 38.5157C147.115 38.5157 147.408 38.5478 147.717 38.6121C148.03 38.6735 148.321 38.7874 148.591 38.954C148.864 39.1205 149.088 39.3587 149.262 39.6684C149.436 39.9752 149.523 40.374 149.523 40.8649V45.3353H148.208V44.4149H148.154C148.067 44.5844 147.936 44.7509 147.762 44.9145C147.588 45.0782 147.365 45.214 147.091 45.3221C146.818 45.4302 146.491 45.4843 146.11 45.4843ZM146.402 44.4324C146.775 44.4324 147.093 44.3608 147.357 44.2177C147.624 44.0745 147.827 43.8875 147.965 43.6567C148.106 43.4229 148.177 43.1731 148.177 42.9072V42.0394C148.129 42.0862 148.036 42.13 147.897 42.1709C147.762 42.2089 147.608 42.2425 147.434 42.2717C147.26 42.298 147.09 42.3229 146.925 42.3462C146.76 42.3667 146.622 42.3842 146.51 42.3988C146.249 42.431 146.011 42.485 145.794 42.561C145.581 42.637 145.41 42.7465 145.281 42.8897C145.155 43.0299 145.092 43.2169 145.092 43.4507C145.092 43.775 145.215 44.0205 145.461 44.187C145.707 44.3506 146.021 44.4324 146.402 44.4324Z" fill="white"/>
<path d="M151.317 45.3353V38.6034H152.618V39.6728H152.69C152.816 39.3104 153.038 39.0256 153.357 38.8181C153.678 38.6077 154.041 38.5026 154.446 38.5026C154.53 38.5026 154.629 38.5055 154.744 38.5113C154.861 38.5172 154.952 38.5245 155.018 38.5332V39.7867C154.964 39.7721 154.868 39.756 154.73 39.7385C154.592 39.718 154.454 39.7078 154.316 39.7078C153.997 39.7078 153.714 39.7736 153.465 39.905C153.218 40.0336 153.023 40.2133 152.879 40.4441C152.735 40.672 152.663 40.9321 152.663 41.2243V45.3353H151.317Z" fill="white"/>
<path d="M157.422 43.0519L157.413 41.4522H157.647L160.403 38.6034H162.015L158.872 41.8466H158.66L157.422 43.0519ZM156.183 45.3353V36.3594H157.53V45.3353H156.183ZM160.552 45.3353L158.075 42.1359L159.002 41.2199L162.204 45.3353H160.552Z" fill="white"/>
<path d="M163.242 45.3353V38.6034H164.589V45.3353H163.242ZM163.922 37.5646C163.688 37.5646 163.487 37.4887 163.319 37.3367C163.154 37.1819 163.071 36.9978 163.071 36.7845C163.071 36.5683 163.154 36.3842 163.319 36.2323C163.487 36.0774 163.688 36 163.922 36C164.156 36 164.356 36.0774 164.521 36.2323C164.689 36.3842 164.773 36.5683 164.773 36.7845C164.773 36.9978 164.689 37.1819 164.521 37.3367C164.356 37.4887 164.156 37.5646 163.922 37.5646Z" fill="white"/>
<path d="M167.747 41.3382V45.3353H166.4V38.6034H167.693V39.6991H167.778C167.937 39.3426 168.186 39.0562 168.526 38.84C168.868 38.6238 169.299 38.5157 169.818 38.5157C170.29 38.5157 170.702 38.6121 171.057 38.805C171.411 38.9949 171.686 39.2783 171.881 39.6552C172.076 40.0321 172.173 40.4982 172.173 41.0533V45.3353H170.827V41.2111C170.827 40.7232 170.696 40.3419 170.435 40.0672C170.174 39.7896 169.815 39.6508 169.359 39.6508C169.047 39.6508 168.769 39.7166 168.526 39.8481C168.286 39.9795 168.095 40.1724 167.954 40.4266C167.816 40.6779 167.747 40.9817 167.747 41.3382Z" fill="white"/>
<path d="M176.879 48C176.33 48 175.857 47.9299 175.461 47.7896C175.067 47.6494 174.746 47.4638 174.497 47.233C174.248 47.0022 174.062 46.7495 173.939 46.4748L175.096 46.0102C175.177 46.1388 175.285 46.2747 175.42 46.4178C175.558 46.5639 175.744 46.6881 175.979 46.7904C176.216 46.8926 176.521 46.9438 176.893 46.9438C177.403 46.9438 177.825 46.8225 178.158 46.58C178.491 46.3404 178.658 45.9576 178.658 45.4317V44.1081H178.572C178.491 44.2513 178.374 44.4105 178.221 44.5858C178.071 44.7611 177.864 44.9131 177.6 45.0416C177.336 45.1702 176.992 45.2345 176.569 45.2345C176.022 45.2345 175.53 45.1103 175.091 44.8619C174.656 44.6107 174.311 44.2411 174.056 43.7531C173.804 43.2622 173.677 42.6589 173.677 41.943C173.677 41.2272 173.802 40.6136 174.051 40.1023C174.303 39.5909 174.649 39.1994 175.087 38.9277C175.525 38.653 176.022 38.5157 176.578 38.5157C177.007 38.5157 177.354 38.5858 177.618 38.7261C177.882 38.8634 178.088 39.0241 178.235 39.2082C178.385 39.3923 178.5 39.5544 178.581 39.6947H178.681V38.6034H180V45.4843C180 46.0628 179.862 46.5376 179.586 46.9087C179.31 47.2798 178.936 47.5544 178.464 47.7327C177.996 47.9109 177.468 48 176.879 48ZM176.866 44.1476C177.253 44.1476 177.58 44.0599 177.847 43.8846C178.118 43.7064 178.322 43.4522 178.46 43.122C178.601 42.7889 178.672 42.3901 178.672 41.9255C178.672 41.4726 178.603 41.0738 178.464 40.729C178.326 40.3842 178.124 40.1154 177.856 39.9226C177.589 39.7268 177.259 39.6289 176.866 39.6289C176.46 39.6289 176.123 39.7312 175.853 39.9357C175.582 40.1373 175.378 40.412 175.24 40.7597C175.105 41.1074 175.037 41.496 175.037 41.9255C175.037 42.3667 175.106 42.7538 175.245 43.0869C175.383 43.42 175.587 43.6801 175.857 43.8671C176.13 44.0541 176.466 44.1476 176.866 44.1476Z" fill="white"/>
<path fill-rule="evenodd" clip-rule="evenodd" d="M0.606743 12.8208L0.759494 16.0485L9.11393 19.4875L10.166 16.4746L0.606743 12.8208ZM0.551337 11.6501L10.5201 15.4604L11.4326 12.8473L0.408585 8.63363L0.551337 11.6501ZM0.353179 7.46287L11.7867 11.8331L12.8267 8.85464L0.191128 4.03865L0.353179 7.46287ZM0.142579 3.01277L13.1372 7.96559L14.0506 5.34951L0 0L0.142579 3.01277Z" fill="white"/>
<rect width="1" height="10" transform="translate(57 37)" fill="white"/>
<line x1="121.5" y1="37" x2="121.5" y2="47" stroke="white"/>
</svg>
