<svg width="32" height="32" viewBox="0 0 32 32" fill="none" xmlns="http://www.w3.org/2000/svg">
<path d="M4.22964 3.03447C3.76759 3.15872 3.37803 3.48407 3.15297 3.92136L3.15295 3.92139L2.99645 4.22558L2.96875 4.27941V4.33995V15.9995V27.6591V27.7196L2.99647 27.7735L3.15613 28.0837C3.38904 28.5364 3.83264 28.883 4.32293 28.9882C4.36108 28.9964 4.41965 28.9997 4.46758 29.0022C4.52585 29.0051 4.60356 29.0079 4.69852 29.0106C4.88876 29.0159 5.15348 29.0208 5.48136 29.0253C6.13739 29.0344 7.04988 29.0419 8.13289 29.0479C10.2991 29.0599 13.1497 29.066 16 29.066C18.8503 29.066 21.7009 29.0599 23.8671 29.0479C24.9501 29.0419 25.8626 29.0344 26.5186 29.0253C26.8465 29.0208 27.1112 29.0159 27.3015 29.0106C27.3964 29.0079 27.4741 29.0051 27.5324 29.0022C27.5803 28.9997 27.6389 28.9964 27.6771 28.9882C28.1673 28.883 28.6109 28.5364 28.8438 28.0837C28.8439 28.0837 28.8439 28.0837 28.8439 28.0837L29.0035 27.7735L29.0312 27.7196V27.6591V15.9995V4.33995V4.27939L29.0035 4.22554L28.8439 3.91533C28.8439 3.91532 28.8439 3.91531 28.8438 3.91529C28.6109 3.46261 28.1673 3.11601 27.6771 3.01083L27.677 3.01082C27.6381 3.00248 27.5793 2.99874 27.5285 2.99599C27.4685 2.99273 27.389 2.98969 27.2924 2.98682C27.0987 2.98107 26.8305 2.97584 26.4992 2.9711C25.8362 2.96161 24.9167 2.95404 23.8268 2.9483C21.6468 2.93681 18.7831 2.93264 15.9227 2.93516C13.0623 2.93769 10.2046 2.94692 8.03691 2.96225C6.95314 2.96991 6.04122 2.9791 5.38742 2.98976C5.06069 2.99508 4.79738 3.00078 4.60896 3.00688C4.51496 3.00992 4.43804 3.01311 4.38059 3.01649C4.35202 3.01817 4.32643 3.02001 4.30508 3.02208C4.28982 3.02357 4.25863 3.02667 4.22964 3.03447ZM4.22964 3.03447L4.29456 3.27589M4.22964 3.03447C4.22964 3.03447 4.22964 3.03447 4.22964 3.03447L4.29456 3.27589M4.29456 3.27589C4.69475 3.16827 27.1266 3.14845 27.6246 3.25527M4.29456 3.27589C3.90456 3.38077 3.57006 3.65727 3.37525 4.03577L3.21875 4.33995V15.9995V27.6591L3.37844 27.9693C3.57825 28.3577 3.96081 28.6548 4.37537 28.7438C4.82412 28.84 27.1759 28.84 27.6246 28.7438C28.0392 28.6548 28.4218 28.3577 28.6216 27.9693L27.6246 3.25527M27.6246 3.25527C28.0392 3.3442 28.4218 3.64133 28.6216 4.0297L28.7812 4.33995V15.9995V27.6591L27.6246 3.25527ZM19.1763 12.5029C18.8913 11.9238 18.3029 11.3595 17.735 11.1344L17.7349 11.1343L18.952 12.6133M19.1763 12.5029L18.952 12.6133M19.1763 12.5029C19.1763 12.5028 19.1763 12.5028 19.1763 12.5028L18.952 12.6133M19.1763 12.5029C19.2693 12.6918 19.3333 12.8335 19.3682 13.001C19.4022 13.1638 19.4062 13.3396 19.4062 13.592C19.4062 13.8406 19.4014 14.016 19.3692 14.1781C19.3361 14.345 19.2765 14.4857 19.1895 14.6693C18.9181 15.242 18.43 15.7301 17.8573 16.0016L17.4508 16.1942L17.4016 16.2175L17.3472 16.2182L15.8628 16.2388L14.3785 16.2594L14.125 16.263V16.0095V13.6399C14.125 12.9871 14.1303 12.3878 14.1388 11.9479C14.143 11.7282 14.1481 11.5468 14.1538 11.4178C14.1566 11.3538 14.1597 11.2999 14.1632 11.2598C14.1649 11.2404 14.1671 11.2197 14.1701 11.201C14.1715 11.1923 14.174 11.1781 14.1784 11.1623C14.1805 11.1546 14.1845 11.1414 14.1912 11.1261C14.1959 11.1152 14.2113 11.0806 14.2446 11.0472M18.952 12.6133C19.1369 12.9888 19.1562 13.0815 19.1562 13.592C19.1562 14.0921 19.1345 14.2016 18.9636 14.5622C18.7169 15.0828 18.2708 15.5289 17.7502 15.7756L17.3438 15.9683L15.8594 15.9888L14.625 16.006V16.0095H14.375L14.3715 15.7595L14.375 15.7594V13.6399C14.375 12.3366 14.396 11.2494 14.4216 11.2238M14.2446 11.0472L14.4216 11.2238M14.2446 11.0472C14.2447 11.0471 14.2448 11.0471 14.2448 11.047L14.4216 11.2238M14.2446 11.0472C14.2835 11.0083 14.3254 10.9922 14.3359 10.9881L14.3362 10.988C14.3531 10.9815 14.3679 10.9777 14.377 10.9756C14.3958 10.9713 14.4144 10.9686 14.4288 10.9668C14.4589 10.963 14.4961 10.9602 14.5364 10.9579C14.6185 10.9532 14.7307 10.9498 14.8637 10.9477C15.1304 10.9434 15.4901 10.944 15.8789 10.9504C15.8789 10.9504 15.8789 10.9504 15.8789 10.9504L15.8748 11.2003C15.1011 11.1876 14.4473 11.1981 14.4216 11.2238M0.415135 3.54136L0.415139 3.54135C0.649614 2.73142 0.971393 2.18918 1.58053 1.58004C2.30229 0.858278 3.03287 0.479751 4.03147 0.309332C4.02882 0.309785 4.02729 0.310042 4.0273 0.310146C4.02734 0.310483 4.0434 0.309212 4.08901 0.307738C4.13778 0.306161 4.20674 0.304589 4.29543 0.303042C4.47255 0.299953 4.72485 0.297021 5.04436 0.294283C5.68321 0.288807 6.58853 0.284119 7.69382 0.280444C9.90429 0.273094 12.9133 0.269797 16.1873 0.272328L28.0559 0.281549L28.487 0.414749L28.487 0.414754C29.2922 0.663483 29.823 0.983527 30.4195 1.58004C31.0286 2.18918 31.3504 2.73142 31.5849 3.54135L31.825 3.47183L31.5849 3.54136L31.7188 4.00373V15.9995V27.9953L31.584 28.4613C31.584 28.4613 31.584 28.4613 31.584 28.4613C31.354 29.2558 31.0266 29.8066 30.4166 30.4194L30.4166 30.4194C29.8104 31.0283 29.2702 31.3493 28.4582 31.5844L28.5277 31.8245L28.4582 31.5844L27.9958 31.7183H16H4.00418L3.53824 31.5835C3.53823 31.5835 3.53822 31.5835 3.53821 31.5835C2.74369 31.3536 2.19287 31.0261 1.58014 30.4161L1.58013 30.4161C0.971221 29.8099 0.650244 29.2698 0.415139 28.4577L0.175063 28.5272L0.415135 28.4577L0.28125 27.9953V15.9995V4.00373L0.415135 3.54136ZM11.4375 23.7495V15.996V8.24402L14.4515 8.26363L17.6801 8.28464L18.1946 8.44406C20.2071 9.06776 21.6357 10.6148 22.0462 12.5996C22.1131 12.9232 22.1325 13.247 22.1118 13.8337C22.0989 14.1976 22.0861 14.4025 22.0548 14.5851C22.0239 14.7652 21.9737 14.9312 21.8757 15.2157L22.1121 15.2971L21.8757 15.2158C21.5946 16.0322 21.1878 16.6964 20.6022 17.2974C19.8939 18.0244 19.1447 18.4766 18.1594 18.7706L18.1594 18.7707C17.8049 18.8765 17.5755 18.8989 16.0883 18.9314L14.4008 18.9683L14.1579 18.9736L14.1563 19.2166L14.1399 21.6072L14.1252 23.7495H12.7805H11.4375Z" fill="white" stroke="#157CEC" stroke-width="0.5"/>
</svg>
