<svg width="32" height="32" viewBox="0 0 32 32" fill="none" xmlns="http://www.w3.org/2000/svg">
<circle cx="15.9909" cy="15.9998" r="9.08575" fill="url(#paint0_linear_511_3812)"/>
<ellipse cx="2.90754" cy="15.9996" rx="1.09029" ry="2.90744" transform="rotate(-90 2.90754 15.9996)" fill="url(#paint1_linear_511_3812)"/>
<ellipse cx="29.0746" cy="15.9996" rx="1.09029" ry="2.90744" transform="rotate(-90 29.0746 15.9996)" fill="url(#paint2_linear_511_3812)"/>
<ellipse cx="1.09029" cy="2.90744" rx="1.09029" ry="2.90744" transform="matrix(-0.716923 0.697152 0.697152 0.716923 5.62442 3.77607)" fill="url(#paint3_linear_511_3812)"/>
<ellipse cx="1.09029" cy="2.90744" rx="1.09029" ry="2.90744" transform="matrix(-0.716923 0.697152 0.697152 0.716923 23.8667 22.535)" fill="url(#paint4_linear_511_3812)"/>
<ellipse cx="1.09029" cy="2.90744" rx="1.09029" ry="2.90744" transform="matrix(-0.718812 -0.695204 -0.695204 0.718812 27.8916 5.26265)" fill="url(#paint5_linear_511_3812)"/>
<ellipse cx="1.09029" cy="2.90744" rx="1.09029" ry="2.90744" transform="matrix(-0.718812 -0.695204 -0.695204 0.718812 9.70016 24.0722)" fill="url(#paint6_linear_511_3812)"/>
<ellipse cx="1.09029" cy="2.90744" rx="1.09029" ry="2.90744" transform="matrix(-0.999959 0.00902553 0.00902553 0.999959 16.9369 -0.000209808)" fill="url(#paint7_linear_511_3812)"/>
<ellipse cx="1.09029" cy="2.90744" rx="1.09029" ry="2.90744" transform="matrix(-0.999959 0.00902553 0.00902553 0.999959 17.173 26.1656)" fill="url(#paint8_linear_511_3812)"/>
<defs>
<linearGradient id="paint0_linear_511_3812" x1="15.9909" y1="6.91404" x2="15.9909" y2="25.0855" gradientUnits="userSpaceOnUse">
<stop stop-color="#FFF388"/>
<stop offset="1" stop-color="#FFC700" stop-opacity="0.53"/>
</linearGradient>
<linearGradient id="paint1_linear_511_3812" x1="2.90754" y1="13.0921" x2="2.90754" y2="18.907" gradientUnits="userSpaceOnUse">
<stop stop-color="#FFF388"/>
<stop offset="1" stop-color="#FFC700" stop-opacity="0.53"/>
</linearGradient>
<linearGradient id="paint2_linear_511_3812" x1="29.0746" y1="13.0921" x2="29.0746" y2="18.907" gradientUnits="userSpaceOnUse">
<stop stop-color="#FFF388"/>
<stop offset="1" stop-color="#FFC700" stop-opacity="0.53"/>
</linearGradient>
<linearGradient id="paint3_linear_511_3812" x1="1.09029" y1="0" x2="1.09029" y2="5.81488" gradientUnits="userSpaceOnUse">
<stop stop-color="#FFF388"/>
<stop offset="1" stop-color="#FFC700" stop-opacity="0.53"/>
</linearGradient>
<linearGradient id="paint4_linear_511_3812" x1="1.09029" y1="0" x2="1.09029" y2="5.81488" gradientUnits="userSpaceOnUse">
<stop stop-color="#FFF388"/>
<stop offset="1" stop-color="#FFC700" stop-opacity="0.53"/>
</linearGradient>
<linearGradient id="paint5_linear_511_3812" x1="1.09029" y1="0" x2="1.09029" y2="5.81488" gradientUnits="userSpaceOnUse">
<stop stop-color="#FFF388"/>
<stop offset="1" stop-color="#FFC700" stop-opacity="0.53"/>
</linearGradient>
<linearGradient id="paint6_linear_511_3812" x1="1.09029" y1="0" x2="1.09029" y2="5.81488" gradientUnits="userSpaceOnUse">
<stop stop-color="#FFF388"/>
<stop offset="1" stop-color="#FFC700" stop-opacity="0.53"/>
</linearGradient>
<linearGradient id="paint7_linear_511_3812" x1="1.09029" y1="0" x2="1.09029" y2="5.81488" gradientUnits="userSpaceOnUse">
<stop stop-color="#FFF388"/>
<stop offset="1" stop-color="#FFC700" stop-opacity="0.53"/>
</linearGradient>
<linearGradient id="paint8_linear_511_3812" x1="1.09029" y1="0" x2="1.09029" y2="5.81488" gradientUnits="userSpaceOnUse">
<stop stop-color="#FFF388"/>
<stop offset="1" stop-color="#FFC700" stop-opacity="0.53"/>
</linearGradient>
</defs>
</svg>
