<svg width="20" height="20" viewBox="0 0 20 20" fill="none" xmlns="http://www.w3.org/2000/svg">
<g clip-path="url(#clip0_511_3942)">
<path d="M12.5 3.33334C8.81665 3.33334 5.83331 6.31668 5.83331 10C5.83331 13.6833 8.81665 16.6667 12.5 16.6667C16.1833 16.6667 19.1666 13.6833 19.1666 10C19.1666 6.31668 16.1833 3.33334 12.5 3.33334ZM12.5 15C9.74165 15 7.49998 12.7583 7.49998 10C7.49998 7.24168 9.74165 5.00001 12.5 5.00001C15.2583 5.00001 17.5 7.24168 17.5 10C17.5 12.7583 15.2583 15 12.5 15Z" fill="#3EE563"/>
<path d="M2.49998 9.99999C2.49998 7.82499 3.89165 5.97499 5.83331 5.29165V3.54999C2.95831 4.29165 0.833313 6.89165 0.833313 9.99999C0.833313 13.1083 2.95831 15.7083 5.83331 16.45V14.7083C3.89165 14.025 2.49998 12.175 2.49998 9.99999V9.99999Z" fill="#3EE563"/>
</g>
<defs>
<clipPath id="clip0_511_3942">
<rect width="20" height="20" fill="white"/>
</clipPath>
</defs>
</svg>
