<svg width="26" height="37" viewBox="0 0 26 37" fill="none" xmlns="http://www.w3.org/2000/svg">
<path fill-rule="evenodd" clip-rule="evenodd" d="M12.3161 1.06443C12.1806 1.1168 11.4047 1.56602 10.5919 2.0626L9.11392 2.96555L7.2841 3.12073C6.13054 3.21856 5.36321 3.31511 5.20795 3.38204C4.72699 3.58931 4.54957 3.87645 3.80561 5.65152C3.19072 7.11847 3.06291 7.36951 2.8332 7.56065C2.6878 7.6817 2.06207 8.22009 1.44274 8.75707C0.227954 9.81035 0 10.1102 0 10.6542C0 10.8152 0.177352 11.6873 0.394045 12.5922C0.610808 13.4972 0.78809 14.3009 0.78809 14.3784C0.78809 14.4558 0.610808 15.2595 0.394045 16.1645C0.177352 17.0694 0 17.9415 0 18.1025C0 18.6469 0.227531 18.9453 1.44274 19.9947C2.06207 20.5295 2.6973 21.084 2.85438 21.2268C3.10408 21.4539 3.2271 21.6967 3.83362 23.1597C4.76021 25.3945 4.8239 25.4539 6.42197 25.5711L7.03778 25.6163L7.0382 30.6595C7.03841 33.9978 7.06382 35.7937 7.11322 35.9717C7.28107 36.5762 7.99161 37.0606 8.60284 36.9873C8.77512 36.9667 9.73606 36.5719 10.8608 36.0598L12.8187 35.1684L14.7667 36.0602C15.899 36.5786 16.8403 36.9669 17.0147 36.9877C17.638 37.0617 18.3418 36.5714 18.5103 35.9456C18.5582 35.7676 18.5804 35.2111 18.5668 34.5281L18.5445 33.4036L18.3147 33.1985C18.1883 33.0856 18.0046 32.9933 17.9066 32.9933C17.6732 32.9933 17.336 33.1706 17.2447 33.3413C17.2042 33.4169 17.1722 33.9432 17.1722 34.5334V35.5901L16.9404 35.4932C16.8129 35.44 15.8758 35.014 14.8579 34.5467C13.8401 34.0794 12.9207 33.6971 12.8147 33.6971C12.7087 33.6971 11.7535 34.0957 10.692 34.583C9.63049 35.0702 8.69081 35.497 8.60368 35.5313L8.44533 35.5937V30.6601V25.7265L8.77963 25.7596C9.05572 25.7871 9.39473 25.9632 10.7268 26.7715L12.3398 27.7501H12.8115H13.2833L14.8934 26.7721C16.2208 25.9658 16.5623 25.7881 16.8379 25.7603L17.1722 25.7265V26.6909V27.6554L17.3779 27.8611C17.6008 28.084 17.8779 28.1271 18.186 27.9867C18.4978 27.8447 18.5797 27.5421 18.5797 26.5329V25.6185L19.2307 25.5712C20.7693 25.4594 20.8662 25.3684 21.7787 23.1792C22.1489 22.291 22.4911 21.5098 22.5392 21.4433C22.5872 21.3768 23.1965 20.8335 23.8932 20.2361C25.329 19.0051 25.3611 18.9728 25.5093 18.6183C25.6785 18.2132 25.6447 17.9235 25.2235 16.1645C25.0067 15.2595 24.8294 14.4558 24.8294 14.3784C24.8294 14.3009 25.0067 13.4972 25.2235 12.5922C25.6447 10.8332 25.6785 10.5435 25.5093 10.1384C25.3611 9.78389 25.329 9.75165 23.8932 8.52061C23.1965 7.92317 22.5885 7.38154 22.5421 7.31708C22.4958 7.25261 22.1534 6.47142 21.7813 5.58114C21.07 3.87954 20.8895 3.58987 20.4095 3.38099C20.2526 3.31272 19.4994 3.21715 18.3334 3.11756L16.5036 2.96133L14.9164 1.99792C13.4959 1.13559 13.2891 1.03108 12.9458 1.0018C12.7141 0.982092 12.465 1.00687 12.3161 1.06443ZM14.4525 3.36339L16.0813 4.34784L17.9767 4.50703L19.8721 4.66623L20.5825 6.36909C20.9731 7.30567 21.3711 8.15556 21.467 8.25781C21.5628 8.36007 22.2191 8.93781 22.9256 9.54165C23.632 10.1455 24.2099 10.6654 24.2099 10.6969C24.2099 10.7284 24.017 11.5688 23.7812 12.5644L23.3525 14.3746L23.7916 16.2359C24.2215 18.0582 24.2279 18.0997 24.095 18.2084C23.5839 18.627 21.4806 20.4669 21.3948 20.5704C21.3368 20.6406 20.9695 21.4612 20.5788 22.3942L19.8683 24.0905L17.9748 24.2483L16.0813 24.4062L14.4464 25.3943L12.8116 26.3825L11.297 25.4637C10.464 24.9583 9.71002 24.5119 9.62162 24.4716C9.53316 24.4313 8.62578 24.3291 7.60516 24.2444L5.74958 24.0905L5.0375 22.3897C4.64585 21.4542 4.26271 20.6185 4.18607 20.5325C4.10943 20.4465 3.4925 19.901 2.81511 19.3201C2.13772 18.7393 1.53987 18.2239 1.48652 18.1747C1.40474 18.0994 1.45802 17.7954 1.82729 16.23L2.26504 14.3746L1.8363 12.5644C1.60046 11.5688 1.40756 10.7284 1.40756 10.6969C1.40756 10.6654 1.98557 10.1455 2.69195 9.54165C3.3984 8.93781 4.05474 8.36007 4.15053 8.25781C4.24638 8.15556 4.64437 7.30596 5.03497 6.36972L5.74522 4.66749L7.5585 4.5147C8.55582 4.43067 9.44047 4.34376 9.52436 4.32166C9.60825 4.29949 10.3737 3.8547 11.2253 3.33313C12.0768 2.81156 12.7848 2.38352 12.7986 2.38191C12.8123 2.38029 13.5566 2.82198 14.4525 3.36339ZM11.2108 5.44278C9.44519 5.76567 7.82017 6.6083 6.49974 7.88566C5.15594 9.18561 4.29473 10.7622 3.89506 12.6541C3.71982 13.4839 3.71982 15.2729 3.89506 16.1026C4.69272 19.8785 7.59313 22.6948 11.3272 23.3191C12.3712 23.4938 14.0528 23.4316 14.9972 23.1835C15.3687 23.086 15.8348 22.9422 16.033 22.864C18.5718 21.8634 20.5812 19.7617 21.421 17.2287C21.7523 16.2295 21.8488 15.5867 21.8488 14.3784C21.8488 12.759 21.6054 11.7147 20.8964 10.2919C19.6526 7.79572 17.1418 5.92184 14.4003 5.44376C13.6395 5.3111 11.9338 5.31054 11.2108 5.44278ZM14.6738 6.93725C17.6324 7.7544 19.7056 9.95814 20.3502 12.9708C20.3998 13.203 20.4404 13.8364 20.4404 14.3784C20.4404 15.4163 20.3746 15.8517 20.0785 16.7712C19.2349 19.3908 16.9513 21.3858 14.1987 21.9079C13.4795 22.0444 12.1381 22.0444 11.4188 21.9079C8.29458 21.3153 5.95135 18.9832 5.26735 15.7859C5.15081 15.241 5.15081 13.5157 5.26735 12.9708C5.91933 9.92323 8.07205 7.65925 11.0141 6.92697C11.6779 6.76172 11.7889 6.75349 13.0199 6.77805C13.8943 6.79551 14.3028 6.83485 14.6738 6.93725ZM12.3064 8.70112C12.1188 8.86869 12.0782 8.96237 12.0511 9.28969L12.0188 9.67888L11.6388 9.83639C10.4209 10.3411 9.82368 11.926 10.396 13.1344C10.6797 13.7333 11.4409 14.2415 12.8791 14.792C13.7776 15.136 13.9875 15.2744 14.1485 15.629C14.3829 16.1454 14.291 16.6819 13.8876 17.1533C13.542 17.557 13.1727 17.6749 12.3716 17.6372C11.7811 17.6094 11.6693 17.5807 11.2146 17.3401C10.6284 17.0298 10.3885 17.0384 10.1011 17.38C9.73106 17.8198 9.93635 18.2654 10.6869 18.6515C10.9642 18.7941 11.3773 18.9475 11.6048 18.9923L12.0184 19.0736L12.0509 19.4649C12.0782 19.7945 12.1186 19.8877 12.3064 20.0556C12.6135 20.33 12.958 20.3276 13.2364 20.0492C13.4167 19.8688 13.4422 19.7928 13.4422 19.433V19.0226L13.8682 18.8573C14.1417 18.7514 14.44 18.5572 14.7014 18.3153C15.8731 17.2304 16.0142 15.5169 15.022 14.4188C14.6936 14.0553 14.3716 13.8657 13.5125 13.5298C12.5994 13.1729 11.9622 12.8447 11.7589 12.6266C11.4189 12.2617 11.5921 11.5373 12.1016 11.194C12.5786 10.8726 13.4714 11.0301 14.3434 11.5897C14.7987 11.8818 15.1357 11.8863 15.4181 11.6039C15.7272 11.2948 15.706 10.9509 15.3576 10.6198C15.0389 10.317 14.4027 9.97109 13.8468 9.79831L13.4422 9.67255V9.29286C13.4422 8.96715 13.4129 8.88404 13.2364 8.70753C12.958 8.42911 12.6135 8.42672 12.3064 8.70112ZM17.5082 29.9325C17.106 30.158 17.0424 30.6926 17.3779 31.0281C17.8745 31.5248 18.7275 31.0152 18.5088 30.3525C18.4675 30.2273 18.3754 30.0721 18.3043 30.0077C18.1197 29.8406 17.7365 29.8045 17.5082 29.9325Z" fill="white"/>
</svg>
