<svg width="30" height="25" viewBox="0 0 30 25" fill="none" xmlns="http://www.w3.org/2000/svg">
<path d="M27 0.995117H2.99998C1.53331 0.995117 0.333313 2.19512 0.333313 3.66178V7.66178H2.99998V3.66178H27V22.3285H17.6666V24.9951H27C28.4666 24.9951 29.6666 23.7951 29.6666 22.3285V3.66178C29.6666 2.19512 28.4666 0.995117 27 0.995117ZM0.333313 20.9951V24.9951H4.33331C4.33331 22.7818 2.54665 20.9951 0.333313 20.9951ZM0.333313 15.6618V18.3285C4.01331 18.3285 6.99998 21.3151 6.99998 24.9951H9.66665C9.66665 19.8351 5.49331 15.6618 0.333313 15.6618ZM0.333313 10.3285V12.9951C6.95998 12.9951 12.3333 18.3685 12.3333 24.9951H15C15 16.8885 8.42665 10.3285 0.333313 10.3285Z" fill="white"/>
</svg>
