<svg width="24" height="24" viewBox="0 0 24 24" fill="none" xmlns="http://www.w3.org/2000/svg">
<path fill-rule="evenodd" clip-rule="evenodd" d="M11.5103 0.0502168C11.49 0.113141 11.0624 2.48109 11.0625 2.52948C11.0625 2.54476 11.1627 2.54073 11.2852 2.52057C11.4076 2.50041 11.7293 2.4839 12 2.4839C12.2707 2.4839 12.5924 2.50041 12.7148 2.52057C12.8672 2.54565 12.9368 2.54106 12.9353 2.50603C12.9341 2.4779 12.8327 1.90629 12.71 1.23578L12.4868 0.0166917L12.0082 0.00332861C11.6501 -0.00670546 11.5247 0.00511036 11.5103 0.0502168ZM7.45359 1.69294C7.45406 1.75057 10.1625 2.50327 10.2075 2.45825C10.2306 2.43518 10.3592 1.78672 10.3593 1.69294C10.3594 1.64732 10.0375 1.63433 8.90625 1.63433C7.77473 1.63433 7.45322 1.64732 7.45359 1.69294ZM13.6407 1.69294C13.6408 1.79043 13.7698 2.43565 13.7941 2.45989C13.8402 2.50599 16.5465 1.75193 16.5466 1.69294C16.5468 1.64732 16.2251 1.63433 15.0938 1.63433C13.9625 1.63433 13.6406 1.64732 13.6407 1.69294ZM10.9998 3.41941C10.2549 3.60247 9.43631 4.14937 8.9835 4.76637C8.73384 5.10659 8.48906 5.63033 8.38223 6.05294C8.29988 6.37867 8.28909 6.52829 8.31047 7.0479C8.33864 7.73317 8.39841 7.96898 8.71805 8.65584L8.91984 9.08956H12H15.0802L15.282 8.65584C15.5977 7.97727 15.6608 7.73125 15.6895 7.0675C15.7223 6.3104 15.643 5.93 15.3161 5.27605C14.8579 4.35943 13.9726 3.6555 12.978 3.41698C12.4478 3.28986 11.5223 3.29099 10.9998 3.41941ZM11.5781 5.80738V7.02648H10.5469H9.51562L9.51633 6.85065C9.51839 6.32503 9.80639 5.66001 10.2047 5.26109C10.5554 4.9099 11.15 4.59514 11.4727 4.58998L11.5781 4.58829V5.80738ZM13.1652 4.8051C13.9226 5.17495 14.4805 6.04056 14.4837 6.85065L14.4844 7.02648H13.4531H12.4219V5.80138V4.57629L12.6211 4.60648C12.7306 4.62308 12.9755 4.71245 13.1652 4.8051ZM0 5.21762C0 5.46332 0.00515625 5.47354 0.152344 5.52019C0.668344 5.68383 3.70969 6.55759 3.76327 6.55759C3.79908 6.55759 3.92147 6.4852 4.03528 6.39667C4.52991 6.01196 5.14177 5.80738 5.79769 5.80738C6.30886 5.80738 6.66366 5.89263 7.13208 6.1281L7.49072 6.30834L7.54678 6.0233C7.57763 5.86656 7.66406 5.57046 7.73892 5.36532C7.81378 5.16018 7.875 4.98581 7.875 4.97788C7.875 4.96991 6.10313 4.9634 3.9375 4.9634H0V5.21762ZM16.125 4.97788C16.125 4.98581 16.1862 5.16018 16.2611 5.36532C16.3359 5.57046 16.4224 5.86656 16.4532 6.0233L16.5093 6.30834L16.8679 6.12786C17.3873 5.86646 17.7291 5.7936 18.3249 5.81723C18.9078 5.84034 19.3224 5.96769 19.7534 6.25596C19.905 6.35738 20.076 6.47062 20.1336 6.50761C20.229 6.56894 20.3694 6.53673 21.7323 6.14062C22.5542 5.90177 23.4006 5.65396 23.6133 5.58992L24 5.47349V5.21842V4.9634H20.0625C17.8969 4.9634 16.125 4.96991 16.125 4.97788ZM5.39569 6.65521C4.09584 6.91057 3.36305 8.37784 3.93581 9.57832C4.41811 10.5891 5.66555 11.0272 6.68109 10.5424C7.25911 10.2665 7.72969 9.64588 7.81833 9.04267C7.85086 8.82126 7.8383 8.73499 7.7295 8.43251C7.65984 8.23872 7.57673 7.94764 7.54491 7.7856C7.46737 7.39159 7.20647 7.09456 6.73462 6.86307C6.24666 6.62366 5.86097 6.56378 5.39569 6.65521ZM17.8125 6.65564C17.4556 6.72484 16.9505 7.00434 16.7212 7.25946C16.5513 7.44847 16.5024 7.54506 16.4551 7.7856C16.4233 7.94764 16.3402 8.23872 16.2705 8.43251C16.1617 8.73499 16.1491 8.82126 16.1817 9.04267C16.2356 9.40985 16.468 9.85257 16.76 10.1447C17.559 10.9439 18.8755 10.9398 19.6668 10.1356C20.8268 8.95658 20.1972 6.96149 18.5676 6.65235C18.2778 6.59735 18.1094 6.59811 17.8125 6.65564ZM6.20733 7.98309C6.69534 8.26915 6.74766 8.92864 6.31266 9.31068C5.94412 9.6344 5.3625 9.54175 5.08284 9.11483C4.91395 8.85704 4.94222 8.43378 5.14439 8.19348C5.43342 7.84988 5.84213 7.769 6.20733 7.98309ZM18.5579 7.9384C18.8863 8.10823 19.0742 8.47818 19.0156 8.83927C18.9173 9.44572 18.1508 9.71776 17.6873 9.31068C17.2511 8.92756 17.3032 8.27862 17.7942 7.98135C18.0071 7.85246 18.354 7.83295 18.5579 7.9384ZM9.56503 10.1021C9.79008 10.337 10.0534 10.5103 10.3828 10.6402C10.6545 10.7474 10.7086 10.7512 11.9766 10.7526C13.1429 10.7539 13.3178 10.7442 13.5469 10.6656C13.9067 10.5422 14.1453 10.3951 14.3887 10.1468L14.5976 9.93354H12.0006H9.4035L9.56503 10.1021ZM20.307 12.4866C19.4014 12.7059 18.6344 13.422 18.3458 14.3176C18.1424 14.9487 18.1965 15.7715 18.478 16.331C18.5307 16.4357 19.0828 17.2531 19.7049 18.1476C20.891 19.8529 20.9661 19.9369 21.2241 19.8461C21.3118 19.8152 21.6694 19.3395 22.5071 18.1389C23.1459 17.2234 23.7131 16.3719 23.7675 16.2465C24.085 15.5151 24.0643 14.6694 23.711 13.9378C23.5227 13.5481 22.932 12.9283 22.5621 12.7325C22.0134 12.4421 20.9635 12.3276 20.307 12.4866ZM11.3011 13.431C10.3299 13.917 9.38325 15.4488 8.7683 17.5294C8.68823 17.8002 8.61131 18.0587 8.5973 18.1038C8.5732 18.1815 8.75658 18.1859 12 18.1859C15.2434 18.1859 15.4268 18.1815 15.4027 18.1038C15.3887 18.0587 15.3118 17.8002 15.2317 17.5294C14.6179 15.4528 13.6687 13.9163 12.7001 13.4316C12.3996 13.2812 12.3225 13.2626 12 13.2626C11.6778 13.2626 11.6003 13.2813 11.3011 13.431ZM9.25781 13.5871C8.08561 13.8888 7.08834 14.3177 6.06422 14.9607L5.68308 15.2L5.89345 15.4856C6.16162 15.8495 6.33764 16.1987 6.47545 16.6402C6.56564 16.9292 6.58481 17.0944 6.58533 17.5879L6.58594 18.1857L7.15833 18.1858L7.73077 18.1859L7.78008 17.9866C7.90327 17.4891 8.41669 16.0037 8.62627 15.5387C8.90728 14.9149 9.33708 14.1934 9.68175 13.7667C9.86916 13.5347 9.91551 13.4507 9.85542 13.4523C9.81033 13.4535 9.54141 13.5142 9.25781 13.5871ZM14.3003 13.7432C14.9172 14.5045 15.448 15.5664 15.8884 16.9199C16.0436 17.397 16.1928 17.877 16.2199 17.9866L16.2692 18.1859H17.489C18.4518 18.1859 18.7014 18.1735 18.6742 18.1273C18.6554 18.095 18.4973 17.8663 18.3232 17.619C17.5952 16.5855 17.3926 16.038 17.3913 15.0997L17.3906 14.6159L16.8164 14.3416C16.5006 14.1908 15.9891 13.9799 15.6797 13.873C15.1649 13.6952 14.2624 13.4503 14.1213 13.4502C14.0892 13.4502 14.1698 13.5821 14.3003 13.7432ZM21.7139 13.7777C22.0125 13.8895 22.2642 14.0898 22.4552 14.3676C22.6594 14.6644 22.739 14.9272 22.7393 15.3052C22.7399 15.9609 22.404 16.4953 21.8065 16.7895C21.5267 16.9273 21.4525 16.9432 21.0947 16.9423C20.7625 16.9415 20.6504 16.9204 20.4283 16.8171C20.0883 16.659 19.7617 16.3327 19.6017 15.9913C19.4951 15.7639 19.4766 15.6616 19.4766 15.3022C19.4766 14.9356 19.4937 14.8454 19.6069 14.6147C20.0008 13.8125 20.8771 13.4644 21.7139 13.7777ZM2.02458 14.9986C1.52625 15.1292 1.24266 15.2997 0.818906 15.7232C0.396141 16.1457 0.178219 16.532 0.0672188 17.0559C-0.0529219 17.6228 0.0148594 18.2575 0.249609 18.7642C0.311297 18.8974 0.882328 19.75 1.51856 20.6587C2.73919 22.4024 2.76558 22.4311 3.03605 22.3142C3.12591 22.2754 3.50119 21.7742 4.29511 20.6326C4.91719 19.7382 5.46928 18.9207 5.52202 18.816C5.68359 18.495 5.77645 18.0499 5.77575 17.5998C5.77388 16.3633 4.89961 15.2591 3.6983 14.9758C3.26995 14.8748 2.4547 14.8859 2.02458 14.9986ZM3.47677 16.2468C3.79978 16.3732 4.06964 16.5906 4.26309 16.8803C4.82634 17.7241 4.51116 18.841 3.58303 19.29C3.34491 19.4052 3.24698 19.425 2.90527 19.4265C2.54658 19.4282 2.47397 19.4127 2.19347 19.2746C1.80891 19.0852 1.4963 18.7522 1.35928 18.3859C1.24022 18.0675 1.22761 17.5532 1.33167 17.2593C1.46522 16.8823 1.79498 16.4988 2.14205 16.3168C2.51784 16.1198 3.07697 16.0905 3.47677 16.2468ZM6.20555 19.276C6.05166 19.581 3.9862 22.5495 3.75473 22.7982C3.51661 23.0542 3.27637 23.1538 2.89402 23.155C2.32177 23.1569 2.17228 23.0431 1.52161 22.1108C1.30458 21.7999 1.18997 21.6718 1.16644 21.7138C1.0762 21.8751 0.845109 23.3884 0.844125 23.8242L0.84375 24H3.93225H7.0207L7.05267 23.3318C7.12753 21.766 7.32009 20.0556 7.52517 19.1353C7.54861 19.0301 7.54697 19.0299 6.93919 19.0299H6.32972L6.20555 19.276ZM8.37089 19.1119C8.31487 19.2885 8.1113 20.5877 8.04206 21.2102C7.95056 22.033 7.87608 23.1076 7.87547 23.6132L7.875 24H12H16.125V23.6593C16.125 23.1719 16.04 21.9262 15.9563 21.1867C15.8875 20.5781 15.683 19.2819 15.6291 19.1119C15.6046 19.0347 15.3903 19.0299 12 19.0299C8.60967 19.0299 8.39541 19.0347 8.37089 19.1119ZM16.4737 19.1347C16.6886 20.1419 16.8729 21.7755 16.9473 23.3318L16.9793 24H20.0677H23.1562V23.8341C23.1562 22.9421 22.7474 21.1154 22.342 20.1967L22.2349 19.9539L22.1305 20.1229C21.9 20.496 21.5689 20.6709 21.0934 20.6709C20.8385 20.6709 20.728 20.6457 20.5299 20.542C20.3129 20.4285 20.2261 20.3317 19.8046 19.7332L19.3258 19.0533L17.8884 19.0409L16.451 19.0285L16.4737 19.1347Z" fill="#157CEC"/>
</svg>
