<svg width="24" height="14" viewBox="0 0 24 14" fill="none" xmlns="http://www.w3.org/2000/svg">
<path fill-rule="evenodd" clip-rule="evenodd" d="M0.560076 0.16576C0.346977 0.29369 0.251691 0.393604 0.142015 0.60421L0 0.876952V5.96263C0 9.62613 0.0162201 11.1025 0.058016 11.242C0.173387 11.6271 0.628515 12.0008 0.982154 12.0008H1.11863V11.5016C1.11863 10.7283 1.34805 10.1191 1.82763 9.61886C3.32151 8.06082 5.8676 8.69981 6.46154 10.7818C6.49723 10.9069 6.52667 11.2323 6.52698 11.505L6.52759 12.0008H11.4632H16.3988L16.3806 11.601C16.3439 10.7929 16.6402 10.0514 17.2144 9.51427C18.3256 8.47476 19.9472 8.489 20.9936 9.54742C21.5773 10.1379 21.8486 10.8326 21.7978 11.6067L21.772 12.0008H22.463C23.0599 12.0008 23.1838 11.9863 23.3734 11.8945C23.6358 11.7675 23.862 11.5078 23.9416 11.242C24.016 10.9936 24.0207 7.27168 23.9476 6.48391C23.877 5.72355 23.2525 1.81721 23.1509 1.50094C22.9671 0.928358 22.5448 0.457365 21.972 0.185946L21.6352 0.0263893L11.2357 0.0132198L0.836071 0L0.560076 0.16576ZM5.44059 3.28057V5.44156H3.27961H1.11863V3.4292V1.41684L1.26725 1.26822L1.41588 1.11959H3.42823H5.44059V3.28057ZM10.932 3.28057V5.44156H8.74562H6.55922V3.28057V1.11959H8.74562H10.932V3.28057ZM16.3726 3.28057V5.44156H14.1862H11.9998V3.28057V1.11959H14.1862H16.3726V3.28057ZM21.5356 1.21518C21.7548 1.31469 21.9948 1.5645 22.0762 1.77775C22.1823 2.05547 22.881 6.54116 22.881 6.94412V7.11949H20.9875H19.094L18.2672 6.2938L17.4404 5.46815V3.29384V1.11959L19.3853 1.12071C21.1622 1.12173 21.3479 1.12986 21.5356 1.21518ZM3.34235 9.6125C2.83241 9.74049 2.36737 10.124 2.12473 10.6166C1.9011 11.0705 1.86475 11.6662 2.0332 12.1153C2.51996 13.4128 4.17461 13.7878 5.13739 12.8187C5.60513 12.348 5.8043 11.7634 5.6995 11.1686C5.5401 10.2634 4.80913 9.61174 3.91621 9.57864C3.70591 9.57081 3.44771 9.58606 3.34235 9.6125ZM18.4982 9.65516C16.8652 10.1943 16.742 12.4478 18.3048 13.1906C18.5981 13.3301 18.6869 13.3477 19.094 13.348C19.5087 13.3482 19.5847 13.3324 19.8874 13.1834C20.2912 12.9847 20.6483 12.6205 20.8372 12.2152C20.9521 11.9685 20.9727 11.8552 20.9732 11.4669C20.9737 11.0601 20.9563 10.9726 20.8166 10.6788C20.4 9.80226 19.3957 9.35883 18.4982 9.65516Z" fill="#157CEC"/>
</svg>
