<svg width="24" height="24" viewBox="0 0 24 24" fill="none" xmlns="http://www.w3.org/2000/svg">
<path fill-rule="evenodd" clip-rule="evenodd" d="M6.2 0.0466593C5.31435 0.288055 4.5782 0.961253 3.9876 2.06982C3.6584 2.68771 3.45845 3.2533 3.22895 4.21593C3.21095 4.29131 3.27145 4.29802 3.96965 4.29802H4.72995L4.898 3.75119C5.32095 2.37478 6.1026 1.38818 6.7686 1.39005C7.0104 1.39076 7.42325 1.64125 7.67795 1.94185C8.0003 2.32224 8.4094 3.12434 8.60395 3.75743L8.77005 4.29802H9.53035C10.2285 4.29802 10.2891 4.29131 10.2711 4.21593C9.97475 2.97325 9.6082 2.0936 9.0835 1.36618C8.64995 0.765125 8.0409 0.285241 7.475 0.0988695C7.155 -0.00653606 6.4944 -0.0336028 6.2 0.0466593ZM0 12.7417V19.7781H3.0701H6.1402L6.1683 19.5084C6.18375 19.36 6.21025 19.0698 6.2272 18.8634C6.24415 18.657 6.5937 15.947 7.004 12.8413C7.4143 9.73553 7.75 7.17606 7.75 7.15354C7.75 7.13069 9.0211 7.11259 10.625 7.11259H13.5V6.40895V5.7053H6.75H0V12.7417ZM9.0768 8.62542C9.0311 8.81733 7.80485 18.192 7.7284 18.9338C7.598 20.1993 7.5492 21.0269 7.5162 22.5341L7.4841 24H15.7421H24L23.9999 23.1204C23.9997 21.9875 23.9223 20.4823 23.8003 19.2387C23.7137 18.3553 22.4847 8.8837 22.4232 8.62542L22.3981 8.51987H15.75H9.1019L9.0768 8.62542ZM13.515 12.214C13.5472 13.1669 13.6325 13.7885 13.8232 14.4607C14.2444 15.9456 15.023 16.9582 15.7467 16.9625C16.305 16.9659 16.9909 16.2605 17.4033 15.2587C17.7746 14.3571 17.9422 13.4794 17.9851 12.214L18.0148 11.3344H18.7646H19.5145L19.4867 12.2609C19.4556 13.2977 19.3595 14.008 19.1423 14.8057C18.4622 17.303 16.8638 18.7112 15.1771 18.299C13.6755 17.9321 12.5138 16.1912 12.126 13.7268C12.0793 13.4301 12.0286 12.7705 12.0133 12.2609L11.9855 11.3344H12.7354H13.4852L13.515 12.214Z" fill="#157CEC"/>
</svg>
