<svg width="24" height="24" viewBox="0 0 24 24" fill="none" xmlns="http://www.w3.org/2000/svg">
<path fill-rule="evenodd" clip-rule="evenodd" d="M10.2053 0.105509C10.057 0.192265 9.79834 0.560148 8.69831 2.24906L7.37034 4.28791L3.9313 4.31134C0.755637 4.333 0.48063 4.34115 0.34036 4.41778C0.165726 4.51316 0 4.80371 0 5.01439C0 5.24696 0.16582 5.51698 0.373834 5.62309C0.556859 5.71646 0.635386 5.71744 7.73546 5.71744C14.8355 5.71744 14.9141 5.71646 15.0971 5.62309C15.3051 5.51698 15.4709 5.24696 15.4709 5.01439C15.4709 4.80371 15.3052 4.51316 15.1306 4.41778C14.9911 4.34157 14.7355 4.33286 12.0138 4.31134L9.04884 4.28791L9.98108 2.85837L10.9133 1.42884L12.2428 1.4054C13.3976 1.38506 13.5922 1.37105 13.7241 1.29896C13.8987 1.20358 14.0645 0.913032 14.0645 0.702352C14.0645 0.469783 13.8986 0.199765 13.6906 0.0936508C13.5161 0.00464464 13.4174 -0.000651663 11.945 5.13869e-05C10.4153 0.000848177 10.3807 0.00291047 10.2053 0.105509ZM0.911518 7.46335C0.927364 7.65027 1.15071 11.3149 1.40785 15.607C1.9303 24.3266 1.86771 23.7079 2.24703 23.9013C2.42743 23.9933 2.51355 23.9967 4.66228 23.9967H6.89042L6.72746 23.7421C6.42137 23.2637 6.25072 22.7329 6.2052 22.1178C6.1713 21.6598 6.22765 21.3482 6.4164 20.9502C6.56839 20.6298 7.02862 20.1597 7.32524 20.022C7.44775 19.9651 7.54793 19.9105 7.54793 19.9006C7.54793 19.8908 7.48427 19.7467 7.40644 19.5804C7.23725 19.219 7.12792 18.7358 7.12679 18.3447C7.12581 17.9972 7.26378 17.4363 7.43171 17.1049C7.53115 16.9087 7.54348 16.8516 7.49341 16.8199C7.4589 16.7981 7.41399 16.7799 7.39355 16.7795C7.31943 16.7781 6.8538 16.4059 6.69694 16.2227C6.23103 15.6785 6.10149 15.0275 6.25733 14.0134C6.35494 13.3784 6.48925 12.9339 6.74729 12.3921C7.06899 11.7165 7.40246 11.2431 7.9182 10.7297C8.44009 10.2103 8.91814 9.87355 9.58292 9.55713C10.5566 9.09368 11.1464 8.999 13.0617 8.99862L14.4732 8.99834L14.5047 8.33045C14.522 7.96308 14.5488 7.54125 14.5642 7.39305L14.5923 7.12354H7.73752H0.882733L0.911518 7.46335ZM11.275 10.4727C9.25747 10.8502 7.74521 12.5342 7.61033 14.5535C7.58534 14.9274 7.59373 14.9994 7.68286 15.1739C7.7499 15.3054 7.84549 15.403 7.96865 15.4658C8.15181 15.5592 8.22912 15.5601 15.7991 15.5601C23.3691 15.5601 23.4464 15.5592 23.6295 15.4658C23.7527 15.403 23.8483 15.3054 23.9153 15.1739C24.0044 14.9993 24.0128 14.9275 23.9877 14.5535C23.8609 12.6652 22.5291 11.0609 20.6513 10.5346L20.2763 10.4295L15.9397 10.4204C12.5314 10.4133 11.533 10.4244 11.275 10.4727ZM9.47969 17.0547C9.00506 17.2192 8.67525 17.5995 8.56939 18.1041C8.46315 18.6104 8.67215 19.1668 9.08743 19.4835C9.49745 19.7962 9.13726 19.7811 15.8955 19.7674L22.0109 19.755L22.2773 19.6242C22.7802 19.3773 23.0404 18.9505 23.0404 18.3723C23.0404 17.7942 22.7802 17.3674 22.2773 17.1204L22.0109 16.9897L15.8694 16.9791C10.0161 16.9691 9.7163 16.9726 9.47969 17.0547ZM7.95866 21.2812C7.75473 21.3889 7.59481 21.6638 7.59481 21.9069C7.59481 22.8529 8.32668 23.7411 9.27313 23.9436C9.62211 24.0183 21.9706 24.0191 22.325 23.9444C22.9238 23.8184 23.4563 23.4179 23.734 22.8848C24.1197 22.1441 24.0783 21.5078 23.6295 21.2789C23.4463 21.1854 23.3711 21.1845 15.7892 21.1866C8.26002 21.1887 8.13104 21.1902 7.95866 21.2812Z" fill="#157CEC"/>
</svg>
