<svg width="24" height="24" viewBox="0 0 24 24" fill="none" xmlns="http://www.w3.org/2000/svg">
<path fill-rule="evenodd" clip-rule="evenodd" d="M2.86645 0.0320116C2.78315 0.0659377 2.70035 0.13064 2.6825 0.17581C2.6646 0.220931 2.65 1.05774 2.65 2.03539V3.81297L1.525 4.90263C0.5185 5.87752 0.4 6.00896 0.4 6.15024C0.4 6.24354 0.4409 6.34778 0.5 6.40507C0.59725 6.49934 0.66665 6.502 3.025 6.502C5.38335 6.502 5.45275 6.49934 5.55 6.40507C5.6091 6.34778 5.65 6.24354 5.65 6.15024C5.65 6.00896 5.5315 5.87752 4.525 4.90263L3.4 3.81297V2.02827C3.4 0.956788 3.38045 0.208136 3.35105 0.154872C3.27495 0.0169872 3.0458 -0.0411233 2.86645 0.0320116ZM9.65365 0.135292C9.5531 0.259171 9.55 0.315682 9.55 2.0353V3.80764L8.425 4.90476C7.2191 6.08074 7.19435 6.11641 7.40365 6.3743L7.50725 6.502H9.95H12.3928L12.4964 6.3743C12.7057 6.11641 12.6809 6.08074 11.475 4.90476L10.35 3.80764V2.0353C10.35 0.315682 10.3469 0.259171 10.2464 0.135292C10.1 -0.0450974 9.8 -0.0450974 9.65365 0.135292ZM16 6.47777V10.8155H20H24V6.47777V2.14008H20H16V6.47777ZM22.7111 3.43785L22.825 3.54821L22.8402 6.29733C22.8485 7.80937 22.8415 9.13961 22.8245 9.25346C22.8069 9.37137 22.7479 9.50175 22.6874 9.55637C22.5844 9.64937 22.5029 9.65228 20.0133 9.65228H17.4454L17.3228 9.5333L17.2 9.41436V6.50816C17.2 4.90976 17.2146 3.56507 17.2325 3.51995C17.3138 3.31455 17.4464 3.3051 20.0861 3.31659L22.5973 3.32749L22.7111 3.43785ZM17.95 5.09649V6.11428H18.775H19.6V5.09649V4.07871H18.775H17.95V5.09649ZM20.4 5.09649V6.11428H21.225H22.05V5.09649V4.07871H21.225H20.4V5.09649ZM17.9723 6.9032C17.9588 6.93727 17.954 7.40075 17.9614 7.9331L17.975 8.90106L18.7875 8.91439L19.6 8.92772V7.88449V6.84126H18.7985C18.1938 6.84126 17.9909 6.85648 17.9723 6.9032ZM20.4 7.88328V8.92529H21.225H22.05V7.88328V6.84126H21.225H20.4V7.88328ZM1.65 7.32786C1.65 7.45377 1.8664 7.76788 2.0769 7.94745C2.38305 8.20873 2.71685 8.31404 3.1446 8.28438C3.51795 8.25845 3.71575 8.1749 4.0066 7.92021C4.19275 7.75717 4.4 7.44515 4.4 7.32786C4.4 7.29418 3.94345 7.27746 3.025 7.27746C2.10655 7.27746 1.65 7.29418 1.65 7.32786ZM8.62645 7.4592C8.7535 7.75601 8.96535 7.97047 9.2967 8.13772C9.819 8.40138 10.3888 8.34298 10.8869 7.97473C11.0309 7.86825 11.3483 7.41495 11.3496 7.31381C11.3498 7.29384 10.7197 7.27746 9.94935 7.27746H8.54865L8.62645 7.4592ZM4.0331 14.1368C3.771 14.2312 3.46985 14.4534 3.3015 14.6766C3.06185 14.9942 3 15.2577 3 15.9607C3 16.5671 3.00665 16.6084 3.14975 16.892C3.35275 17.2943 3.4 17.5849 3.4 18.4312V19.1516H6.80355H10.2071L10.1883 17.2008C10.1718 15.4809 10.1591 15.2232 10.081 15.0225C9.963 14.7192 9.6457 14.3787 9.33115 14.2179L9.075 14.0869L6.65 14.0773C4.65485 14.0694 4.191 14.0799 4.0331 14.1368ZM11.9831 14.1368C11.5972 14.2758 11.2518 14.5925 11.0597 14.9835C10.9869 15.1316 10.9743 15.4072 10.9606 17.1524L10.9448 19.1516H14.3475H17.75V18.3365C17.75 17.4523 17.8008 17.1754 18.0354 16.7823C18.1583 16.5762 18.1615 16.5489 18.1401 15.8857C18.1221 15.3309 18.0984 15.1593 18.0146 14.9776C17.8743 14.6733 17.5832 14.3725 17.2782 14.2164L17.025 14.0869L14.6 14.0773C12.6048 14.0694 12.141 14.0799 11.9831 14.1368ZM6.85385 15.0283C6.93425 15.1062 7 15.2033 7 15.2441C7 15.4652 6.78585 15.662 6.54535 15.662C6.4035 15.662 6.2 15.4473 6.2 15.2976C6.2 14.9214 6.58155 14.7643 6.85385 15.0283ZM14.8039 15.0283C14.9624 15.1819 14.9818 15.2714 14.8919 15.435C14.753 15.6878 14.4725 15.7367 14.2727 15.5431C14.0734 15.3499 14.1198 15.0779 14.375 14.9426C14.5381 14.8561 14.649 14.8783 14.8039 15.0283ZM4.95105 16.5848C5.09775 16.8505 4.92965 17.1645 4.6407 17.1645C4.226 17.1645 4.08985 16.6154 4.46645 16.4619C4.6458 16.3888 4.87495 16.4469 4.95105 16.5848ZM6.882 16.5419C6.9315 16.595 6.97 16.7121 6.97 16.8097C6.97 17.0232 6.812 17.1645 6.5731 17.1645C6.25305 17.1645 6.07945 16.7546 6.3125 16.5491C6.5097 16.3752 6.7238 16.3725 6.882 16.5419ZM8.84635 16.5652C8.90335 16.6354 8.95 16.7454 8.95 16.8097C8.95 16.9765 8.7381 17.1645 8.55 17.1645C8.3619 17.1645 8.15 16.9765 8.15 16.8097C8.15 16.6057 8.33075 16.4375 8.55 16.4375C8.69865 16.4375 8.76645 16.4667 8.84635 16.5652ZM12.8331 16.5091C12.9786 16.6078 13.0179 16.7966 12.9279 16.9651C12.8062 17.1933 12.5126 17.2383 12.3157 17.0591C11.9736 16.7476 12.4455 16.2459 12.8331 16.5091ZM14.8273 16.5368C14.9616 16.6807 14.9497 16.9598 14.8045 17.0738C14.632 17.2091 14.3797 17.1922 14.2536 17.0368C14.12 16.8721 14.1219 16.6908 14.2587 16.5496C14.4012 16.4027 14.6958 16.3961 14.8273 16.5368ZM16.7964 16.5652C16.8533 16.6354 16.9 16.7415 16.9 16.801C16.9 16.8605 16.8533 16.9665 16.7964 17.0368C16.7164 17.1353 16.6487 17.1645 16.5 17.1645C16.3514 17.1645 16.2836 17.1353 16.2036 17.0368C16.1467 16.9665 16.1 16.8605 16.1 16.801C16.1 16.7415 16.1467 16.6354 16.2036 16.5652C16.2836 16.4667 16.3514 16.4375 16.5 16.4375C16.6487 16.4375 16.7164 16.4667 16.7964 16.5652ZM0.77395 16.6487C0.4694 16.7862 0.21625 17.0228 0.09355 17.2846C0.00890002 17.4652 0.00209997 17.6634 0.00109997 19.9876L0 22.4957H10.575H21.15L21.1489 20.0118C21.1479 17.6189 21.1441 17.52 21.046 17.3099C20.8396 16.8672 20.4412 16.5905 19.948 16.5472C19.3895 16.4981 18.9149 16.7582 18.6657 17.2503L18.525 17.528L18.5086 18.7275L18.4923 19.927H10.5462H2.6L2.5995 18.7275C2.59905 17.5669 2.5952 17.5201 2.48065 17.2856C2.16525 16.6401 1.41405 16.3598 0.77395 16.6487ZM6.79645 17.9866C6.9491 18.0658 7.0205 18.2972 6.94155 18.4569C6.7586 18.8269 6.20635 18.7197 6.2016 18.3134C6.19845 18.0453 6.5439 17.8556 6.79645 17.9866ZM14.7988 18.0357C15.0196 18.2497 14.9525 18.5647 14.6632 18.6713C14.5066 18.729 14.2719 18.6517 14.1981 18.5181C13.9957 18.1514 14.5002 17.7463 14.7988 18.0357ZM1.2 23.6114V24L2.3375 23.987L3.475 23.9739L3.4896 23.5983L3.5042 23.2227H2.3521H1.2V23.6114ZM17.65 23.6104V23.9982H18.8H19.95V23.6104V23.2227H18.8H17.65V23.6104Z" fill="#157CEC"/>
</svg>
