<svg width="24" height="24" viewBox="0 0 24 24" fill="none" xmlns="http://www.w3.org/2000/svg">
<path fill-rule="evenodd" clip-rule="evenodd" d="M11.6976 0.0488822C11.5081 0.134893 11.3116 0.374288 11.2764 0.561944C11.2609 0.645138 11.2548 1.11839 11.2628 1.61365C11.279 2.59912 11.2892 2.63729 11.6007 2.86992C11.7824 3.00565 12.2275 3.00565 12.4092 2.86992C12.729 2.63104 12.7323 2.61705 12.7323 1.48783C12.7323 0.524807 12.7264 0.453867 12.6356 0.332174C12.5823 0.260858 12.4836 0.161279 12.4162 0.110902C12.2608 -0.00510942 11.8875 -0.0373166 11.6976 0.0488822ZM3.82045 3.31932C3.62241 3.38073 3.37581 3.64027 3.32057 3.84539C3.22292 4.20821 3.30734 4.35155 4.06626 5.11123C4.64699 5.69256 4.7828 5.80542 4.93508 5.83327C5.4648 5.93008 5.93441 5.45993 5.83591 4.93137C5.80789 4.78113 5.69451 4.64174 5.16108 4.1014C4.80847 3.74426 4.46641 3.42388 4.40099 3.38946C4.23186 3.30049 3.97953 3.27002 3.82045 3.31932ZM19.725 3.3412C19.5916 3.38984 19.3464 3.60238 18.8725 4.08013C18.3159 4.64136 18.2018 4.78029 18.1738 4.93137C18.0758 5.46054 18.5463 5.9312 19.0748 5.83261C19.225 5.80458 19.3643 5.69115 19.9044 5.15748C20.2614 4.8047 20.5872 4.45268 20.6283 4.37521C20.6694 4.29774 20.7034 4.13596 20.7039 4.01572C20.7057 3.51308 20.2033 3.16692 19.725 3.3412ZM9.82046 4.93348C9.39707 5.12015 9.25192 5.66838 9.52448 6.05135C9.70403 6.3036 9.92952 6.36835 10.6323 6.36952L11.2541 6.37055V6.94732V7.5241L10.7966 7.58513C7.84226 7.97903 5.23875 9.8602 3.93303 12.5444C3.32451 13.7953 3.06984 14.8014 3.01015 16.1908L2.98053 16.8794L2.82243 16.9091C2.73543 16.9254 2.59211 17.0022 2.50393 17.0796C2.09871 17.4356 2.19393 18.0769 2.68512 18.3001C2.85622 18.3778 3.00841 18.3876 4.06241 18.3885L5.24734 18.3896V18.8792C5.24734 19.2617 5.26348 19.3849 5.32106 19.4426C5.38742 19.5089 6.0583 19.5163 12.0049 19.5163C17.9516 19.5163 18.6225 19.5089 18.6888 19.4426C18.7464 19.3849 18.7626 19.2617 18.7626 18.8792V18.3896L19.9475 18.3885C21.0015 18.3876 21.1537 18.3778 21.3248 18.3001C21.816 18.0769 21.9112 17.4356 21.506 17.0796C21.4178 17.0022 21.2745 16.9254 21.1875 16.9091L21.0294 16.8794L20.9998 16.1908C20.9409 14.8211 20.6851 13.7975 20.1004 12.5913C19.2082 10.7511 17.7948 9.32869 15.9704 8.43505C14.995 7.9573 14.0036 7.65922 13.0725 7.56377L12.7558 7.53133V6.95094V6.37055L13.3776 6.36952C13.8822 6.36867 14.0356 6.35201 14.1917 6.28111C14.4762 6.15182 14.6094 5.93815 14.6094 5.61105C14.6094 5.32316 14.5304 5.17076 14.2864 4.98846C14.1606 4.89447 14.096 4.89132 12.0602 4.88099C10.3887 4.87254 9.93458 4.88315 9.82046 4.93348ZM0.434885 11.3179C-0.0176402 11.5195 -0.144674 12.1213 0.185792 12.4979C0.3957 12.737 0.550468 12.7644 1.59541 12.7473C2.60652 12.7307 2.64129 12.7216 2.87457 12.4089C3.01024 12.2271 3.01024 11.7818 2.87457 11.6C2.63909 11.2845 2.61295 11.2778 1.54848 11.2655C0.812607 11.2569 0.543429 11.2696 0.434885 11.3179ZM21.4586 11.3179C21.006 11.5195 20.879 12.1213 21.2095 12.4979C21.4194 12.737 21.5741 12.7644 22.6191 12.7473C23.6302 12.7307 23.665 12.7216 23.8982 12.4089C24.0339 12.2271 24.0339 11.7818 23.8982 11.6C23.6628 11.2845 23.6366 11.2778 22.5722 11.2655C21.8363 11.2569 21.5671 11.2696 21.4586 11.3179ZM1.66383 21.1244C1.62751 21.1825 1.52751 21.5205 1.44158 21.8755L1.28545 22.5211L0.955174 22.5221C0.336994 22.5241 0.0148808 22.7839 0.0148808 23.2806C0.0148808 23.5685 0.0939542 23.7209 0.337979 23.9032L0.467594 24H12.0049H23.5423L23.6719 23.9032C23.9159 23.7209 23.995 23.5685 23.995 23.2806C23.995 22.7839 23.6729 22.5241 23.0547 22.5221L22.7244 22.5211L22.5683 21.8755C22.4824 21.5205 22.3824 21.1825 22.3461 21.1244L22.28 21.0187H12.0049H1.72991L1.66383 21.1244Z" fill="#157CEC"/>
</svg>
