<svg width="24" height="24" viewBox="0 0 24 24" fill="none" xmlns="http://www.w3.org/2000/svg">
<path fill-rule="evenodd" clip-rule="evenodd" d="M5.22508 0.0311744C4.36787 0.145878 3.43349 0.486652 2.70002 0.952135C2.45176 1.10972 2.07298 1.42053 1.77047 1.71494C1.46795 2.00936 1.14859 2.37799 0.986666 2.6196C-0.538126 4.89511 -0.273352 7.87195 1.62669 9.81612C2.41556 10.6233 3.41206 11.2098 4.42873 11.4654L4.74244 11.5442L4.91137 11.3424C5.25244 10.9349 5.86143 10.318 6.19035 10.0468C7.28376 9.14514 8.63176 8.49361 10.0479 8.18238L10.527 8.07712L10.609 7.61041C10.7958 6.54661 11.1225 5.69658 11.651 4.89845L11.8627 4.57891L11.7871 4.29511C11.6901 3.93071 11.5635 3.61966 11.3215 3.15122C10.5431 1.64397 8.98602 0.481157 7.25953 0.117601C6.74195 0.00862837 5.71862 -0.0348198 5.22508 0.0311744ZM4.27429 2.39522C4.50344 2.51129 4.59905 2.65681 5.30225 3.96011C5.68165 4.66331 5.99667 5.23401 6.00222 5.22833C6.00782 5.2226 6.32052 4.64725 6.69721 3.94973C7.07386 3.25221 7.42884 2.63196 7.48603 2.57137C7.70486 2.33952 7.94574 2.2824 8.30039 2.37827C8.69383 2.48461 8.91739 2.82604 8.82091 3.17321C8.79557 3.26447 8.47061 3.82526 8.09884 4.41944L7.42286 5.49977L7.81403 5.52532C8.14705 5.54707 8.21872 5.56703 8.2958 5.65971C8.43079 5.8219 8.414 6.05891 8.25917 6.17742C8.14614 6.26399 8.06587 6.27479 7.53647 6.27479H6.9409L6.8673 6.41336C6.8268 6.48959 6.79365 6.61486 6.79365 6.69175V6.83149L7.49786 6.84671C8.17051 6.86127 8.20618 6.86691 8.29421 6.97283C8.4306 7.13699 8.41467 7.37359 8.25917 7.49261C8.1445 7.5804 8.06669 7.58998 7.46755 7.58998H6.8031L6.78631 8.22071C6.76807 8.90531 6.73863 8.98859 6.43722 9.20757C6.24846 9.34472 5.74613 9.34472 5.55737 9.20757C5.25597 8.98859 5.22653 8.90531 5.20828 8.22071L5.19149 7.58998H4.52704C3.9279 7.58998 3.8501 7.5804 3.73542 7.49261C3.57992 7.37359 3.56399 7.13699 3.70038 6.97283C3.78842 6.86691 3.82408 6.86127 4.49673 6.84671L5.20095 6.83149V6.69175C5.20095 6.61486 5.16779 6.48959 5.1273 6.41336L5.05369 6.27479H4.45812C3.92872 6.27479 3.84846 6.26399 3.73542 6.17742C3.58059 6.05891 3.5638 5.8219 3.69879 5.65971C3.77577 5.56718 3.84764 5.54702 4.17848 5.52532L4.56763 5.49977L3.89368 4.41944C3.52301 3.82526 3.19902 3.26447 3.17363 3.17321C3.11485 2.96155 3.18324 2.70998 3.33816 2.56831C3.57277 2.35384 4.02674 2.26991 4.27429 2.39522ZM17.3686 2.9438C15.0235 3.19843 13.0587 4.75749 12.3211 6.94892C12.2276 7.22647 12.1373 7.5688 12.1203 7.70966L12.0894 7.96575H12.3598C12.9851 7.96575 14.1735 8.18553 14.9694 8.44838L15.3022 8.55834L15.4136 8.44993C15.4932 8.37242 15.5807 8.34152 15.7202 8.34152C15.8276 8.34152 15.9155 8.33363 15.9155 8.324C15.9155 8.31437 15.8724 8.21169 15.8197 8.09581C15.6909 7.81239 15.6292 7.34479 15.6765 7.01045C15.7854 6.23985 16.4418 5.59587 17.3634 5.35534C17.7405 5.25693 18.5541 5.2474 18.9802 5.33641C19.6952 5.48573 20.3314 5.90757 20.5762 6.39466C20.7363 6.71299 20.7522 7.11435 20.612 7.30036C20.4155 7.56147 19.9743 7.66762 19.6869 7.523C19.601 7.47974 19.479 7.3206 19.3424 7.07368C19.1195 6.67076 19.0024 6.56019 18.6957 6.46334C18.4447 6.384 17.9656 6.42538 17.7194 6.5476C17.1565 6.82708 17.0209 7.37293 17.349 8.03959L17.4861 8.31803L18.1849 8.34152C18.9633 8.36768 19.0736 8.4023 19.1415 8.64157C19.2084 8.87755 19.1573 9.04256 18.9858 9.14439C18.8628 9.21739 18.7411 9.23364 18.3177 9.23378L17.8 9.23397L17.8093 9.41011C17.8145 9.50701 17.8026 9.6708 17.7829 9.77413L17.7472 9.96202L18.2238 10.3933L18.7004 10.8246L19.0828 10.8756C19.3473 10.9108 19.545 10.9118 19.724 10.8787C19.8663 10.8525 20.0804 10.831 20.1997 10.831C20.386 10.831 20.4397 10.8547 20.5793 10.9987C20.7216 11.1455 20.7418 11.1974 20.7418 11.4145C20.7418 11.8247 20.4354 12.1387 19.9635 12.2121C19.8607 12.2281 19.7766 12.2496 19.7766 12.2599C19.7766 12.2701 19.8942 12.5017 20.0379 12.7745C20.1816 13.0474 20.3608 13.4403 20.4361 13.6477C20.5113 13.8551 20.5857 14.0248 20.6014 14.0249C20.6171 14.025 20.8104 13.9194 21.031 13.7904C22.5243 12.9169 23.5032 11.608 23.8909 9.96638C24.0277 9.38723 24.0376 8.21991 23.9108 7.63695C23.5072 5.78179 22.2701 4.24729 20.5431 3.45968C19.5898 3.02487 18.401 2.83168 17.3686 2.9438ZM10.8237 9.51095C10.2082 9.62195 9.83203 9.71918 9.35355 9.89085C7.63937 10.506 6.14547 11.8184 5.30389 13.4487C4.75586 14.5103 4.51932 15.4968 4.51816 16.7258C4.51724 17.6528 4.64138 18.3546 4.96016 19.2255C5.58566 20.9342 6.94794 22.4152 8.65652 23.2437C9.38694 23.5979 10.1042 23.8241 10.8719 23.9425C11.3689 24.0192 12.6433 24.0192 13.1403 23.9425C16.1369 23.4804 18.5767 21.3059 19.2873 18.4638C19.4525 17.803 19.495 17.4468 19.4948 16.7258C19.4944 15.4612 19.2499 14.4773 18.6565 13.3531C17.6312 11.4103 15.7536 10.0353 13.4782 9.56093C12.7805 9.41551 11.4879 9.39118 10.8237 9.51095ZM12.2922 11.3775C12.3751 11.4801 12.3922 11.5678 12.3922 11.8913V12.2813L12.6215 12.3108C13.6393 12.4418 14.515 12.8005 14.968 13.2717C15.2478 13.5629 15.3363 13.7578 15.3361 14.0822C15.3358 14.5215 15.0411 14.8232 14.6123 14.8232C14.3249 14.8232 14.1586 14.7178 13.792 14.3033C13.6262 14.1158 13.4298 13.9127 13.3556 13.8518C13.1707 13.7004 12.8415 13.5661 12.6094 13.5475L12.4164 13.5321L12.4034 14.6722C12.3933 15.5614 12.4039 15.8158 12.4517 15.8285C12.4853 15.8375 12.7735 15.9117 13.092 15.9934C14.7792 16.4263 15.4811 17.1637 15.4811 18.5032C15.4811 19.9063 14.5745 20.7497 12.8025 20.9951L12.4164 21.0486L12.3922 21.5336C12.3704 21.972 12.3571 22.0274 12.2541 22.1083C12.1092 22.2223 11.9513 22.2223 11.8063 22.1083C11.7034 22.0273 11.6901 21.9721 11.6683 21.5329L11.6441 21.0472L11.288 21.0126C9.69462 20.858 8.53113 19.9204 8.53113 18.791C8.53113 18.2123 9.12762 17.8929 9.71963 18.1546C9.92846 18.2469 9.93252 18.2531 10.3076 19.0595C10.5198 19.5159 10.8227 19.7107 11.439 19.7871L11.6683 19.8155V18.5449V17.2743L11.4631 17.2416C11.3503 17.2236 11.0517 17.1456 10.7995 17.0682C9.40306 16.6396 8.72322 15.9055 8.72477 14.8279C8.72578 14.1019 8.91227 13.6546 9.42348 13.1523C9.901 12.683 10.5604 12.4066 11.439 12.3072L11.6683 12.2813V11.8913C11.6683 11.4186 11.7619 11.2537 12.0302 11.2537C12.1477 11.2537 12.2196 11.2877 12.2922 11.3775ZM11.0847 13.6283C10.8142 13.7094 10.4352 14.0243 10.3393 14.2476C10.0751 14.863 10.5842 15.4815 11.4912 15.6471L11.6683 15.6795V14.6174V13.5553L11.4873 13.5586C11.3878 13.5604 11.2066 13.5917 11.0847 13.6283ZM12.3922 18.6141V19.8152L12.6026 19.7871C13.4986 19.6676 14.0453 19.081 13.8901 18.4058C13.7895 17.9685 13.4411 17.6958 12.742 17.5072L12.3922 17.4129V18.6141Z" fill="#157CEC"/>
</svg>
