<svg width="24" height="19" viewBox="0 0 24 19" fill="none" xmlns="http://www.w3.org/2000/svg">
<path fill-rule="evenodd" clip-rule="evenodd" d="M10.8743 0.0169615C8.59568 0.222868 6.76822 0.704287 4.93527 1.58148C3.38745 2.32223 1.93058 3.32756 0.741668 4.47534C0.200494 4.99775 0.0475888 5.2385 0.00697026 5.63189C-0.0856174 6.52925 0.759398 7.29743 1.63696 7.11366C1.96726 7.04448 2.14732 6.93388 2.54891 6.5534C5.15563 4.08393 8.46022 2.75627 12 2.75627C15.5398 2.75627 18.8443 4.08393 21.4511 6.5534C21.8568 6.93782 22.0342 7.04594 22.372 7.11474C23.458 7.33608 24.356 6.16082 23.8598 5.1674C23.7304 4.90821 22.9463 4.13815 22.2354 3.57216C19.8547 1.67669 17.1674 0.535481 14.1106 0.121979C13.4563 0.0334715 11.4222 -0.0325218 10.8743 0.0169615ZM11.0071 4.58828C8.70201 4.77894 6.42352 5.6907 4.58922 7.15649C3.49965 8.02716 3.1974 8.45989 3.24079 9.08727C3.27657 9.60528 3.52526 9.97858 3.98885 10.2102C4.22848 10.33 4.33083 10.3536 4.60845 10.3532C5.05131 10.3526 5.29976 10.2312 5.80871 9.76681C6.99945 8.68024 8.26702 7.98537 9.73914 7.6122C10.5708 7.40142 11.073 7.34119 12 7.34119C14.3735 7.34119 16.4055 8.13729 18.1913 9.76681C18.7002 10.2312 18.9487 10.3526 19.3915 10.3532C20.1416 10.3542 20.7078 9.83009 20.7592 9.08727C20.8026 8.45989 20.5003 8.02716 19.4108 7.15649C17.0341 5.25727 14.0274 4.33842 11.0071 4.58828ZM11.6013 9.11762C10.8295 9.17025 9.98989 9.35561 9.29984 9.62573C8.17664 10.0654 6.82239 11.0803 6.55828 11.6804C6.40458 12.0296 6.42165 12.4486 6.60476 12.8206C6.83182 13.2818 7.22032 13.5431 7.73138 13.5783C8.16262 13.608 8.46003 13.4858 8.90111 13.0974C9.3278 12.7217 9.64144 12.5106 10.088 12.2985C11.2453 11.7489 12.7547 11.7489 13.912 12.2985C14.3585 12.5106 14.6722 12.7217 15.0989 13.0974C15.5399 13.4858 15.8374 13.608 16.2686 13.5783C16.9988 13.528 17.5405 12.9463 17.5405 12.2124C17.5405 11.7766 17.401 11.4936 16.9882 11.0919C15.9671 10.098 14.4848 9.3845 13.0319 9.18746C12.6034 9.12939 11.919 9.09595 11.6013 9.11762ZM11.7175 14.0614C10.0857 14.2496 9.16682 16.0098 9.92197 17.501C10.1651 17.9811 10.7601 18.4767 11.2886 18.6391C11.6408 18.7474 12.3561 18.7495 12.6951 18.6431C13.0736 18.5245 13.409 18.3126 13.698 18.0096C14.4188 17.254 14.551 16.2094 14.0485 15.2417C13.6284 14.4326 12.6769 13.9509 11.7175 14.0614Z" fill="#157CEC"/>
</svg>
