<svg width="24" height="21" viewBox="0 0 24 21" fill="none" xmlns="http://www.w3.org/2000/svg">
<path fill-rule="evenodd" clip-rule="evenodd" d="M0 5.59845V11.1969H2.46094H4.92187V9.8031V8.40929H4.21837H3.51488L3.52697 5.61007L3.53906 2.81084H12H20.4609L20.473 5.61007L20.4851 8.40929H19.7816H19.0781V9.8031V11.1969H21.5391H24V5.59845V0H12H0V5.59845ZM6.375 5.60491V7.02952L6.97266 7.00173C7.63908 6.97079 7.93308 6.89985 8.40234 6.65681C9.18577 6.25103 9.82041 5.29219 9.85617 4.46018L9.86719 4.20465L8.12109 4.19247L6.375 4.1803V5.60491ZM11.2614 4.64602C11.0822 6.1314 10.2059 7.34921 8.856 7.98883C8.27512 8.2641 7.82766 8.3646 7.04297 8.39614L6.375 8.42295V12.6208V16.8186H6.98133C7.64264 16.8186 8.05092 16.8847 8.56008 17.0741C10.0562 17.6308 11.1311 19.0456 11.2779 20.6513L11.3098 21H12H12.6902L12.7221 20.6513C12.8916 18.7977 14.2594 17.2675 16.0875 16.8863C16.2758 16.8471 16.6673 16.8186 17.0187 16.8186H17.625V12.6208V8.42295L16.957 8.39489C15.6449 8.33983 14.8181 7.99673 13.9687 7.15487C13.2431 6.43562 12.8604 5.65569 12.7388 4.64829L12.6825 4.18142H12H11.3175L11.2614 4.64602ZM14.1248 4.25515C14.0772 4.37804 14.2341 5.0492 14.3852 5.36922C14.5808 5.78355 14.8735 6.14389 15.2344 6.41471C15.7926 6.83369 16.3902 7.01256 17.2383 7.01456L17.625 7.01549V5.59845V4.18142H15.8892C14.3469 4.18142 14.1501 4.18964 14.1248 4.25515ZM12.7894 9.92533C13.4935 10.1071 14.1829 10.6606 14.495 11.2947C14.9655 12.2509 14.9029 13.3215 14.3276 14.1599C13.7918 14.9406 12.9557 15.3783 12 15.3783C11.043 15.3783 10.1897 14.9288 9.66178 14.1464C9.36956 13.7134 9.2295 13.2961 9.19941 12.7687C9.1155 11.2992 10.1065 10.0733 11.5569 9.85258C11.8905 9.8018 12.4356 9.83395 12.7894 9.92533ZM11.5468 11.2801C10.793 11.5471 10.427 12.2941 10.6739 13.0616C10.7873 13.4142 11.1863 13.809 11.5319 13.9107C11.8502 14.0044 12.1498 14.0044 12.4681 13.9107C12.8137 13.809 13.2127 13.4142 13.3261 13.0616C13.6163 12.1592 13.0213 11.275 12.0823 11.2135C11.8748 11.1999 11.7182 11.2193 11.5468 11.2801ZM6.375 19.6062V21H8.13741H9.89981L9.86752 20.7096C9.82866 20.3607 9.66736 19.8756 9.48938 19.5724C9.27834 19.2128 8.74092 18.7126 8.36311 18.524C7.88105 18.2834 7.5518 18.2124 6.91903 18.2124H6.375V19.6062ZM16.1953 18.3003C15.5279 18.4934 14.8383 19.0141 14.5106 19.5724C14.3326 19.8756 14.1713 20.3607 14.1325 20.7096L14.1002 21H15.8626H17.625V19.6062V18.2124L17.0508 18.2157C16.6507 18.218 16.3913 18.2437 16.1953 18.3003Z" fill="white"/>
</svg>
