<svg width="24" height="24" viewBox="0 0 24 24" fill="none" xmlns="http://www.w3.org/2000/svg">
<path fill-rule="evenodd" clip-rule="evenodd" d="M0 12V24H2.13281H4.26562V23.2969V22.5938H7.78125H11.2969V23.2969V24H13.4062H15.5156V17.6484V11.2969H18.3281H21.1406V9.89062V8.48438H22.5703H24V5.67188V2.85938H20.4609H16.9219V5.67188V8.48438H18.3281H19.7344V9.1875V9.89062H17.625H15.5156V4.94531V0H7.75781H0V12ZM12.7031 7.07812V11.2969H7.78125H2.85938V7.07812V2.85938H7.78125H12.7031V7.07812ZM4.26562 7.07812V9.89062H7.78125H11.2969V7.07812V4.26562H7.78125H4.26562V7.07812ZM4.26562 13.4062V14.1094H3.5625H2.85938V13.4062V12.7031H3.5625H4.26562V13.4062ZM7.07812 13.4062V14.1094H6.375H5.67188V13.4062V12.7031H6.375H7.07812V13.4062ZM11.025 12.7554C11.4311 12.8408 11.7672 13.026 12.0724 13.3326C13.2813 14.547 12.6223 16.5931 10.9287 16.8835C10.2653 16.9973 9.61505 16.7845 9.11639 16.2905C8.28136 15.4633 8.28113 14.1569 9.11578 13.3338C9.64458 12.8123 10.3212 12.6073 11.025 12.7554ZM10.2544 14.206C10.0565 14.3105 9.89062 14.5871 9.89062 14.8125C9.89062 15.0451 10.0564 15.3151 10.2644 15.4213C10.3661 15.4732 10.5143 15.5156 10.5938 15.5156C10.9504 15.5156 11.2969 15.1692 11.2969 14.8125C11.2969 14.5799 11.1311 14.3099 10.9231 14.2037C10.6921 14.0859 10.4806 14.0866 10.2544 14.206ZM4.26562 16.2188V16.9219H3.5625H2.85938V16.2188V15.5156H3.5625H4.26562V16.2188ZM7.07812 16.2188V16.9219H6.375H5.67188V16.2188V15.5156H6.375H7.07812V16.2188ZM4.26562 19.0312V19.7344H3.5625H2.85938V19.0312V18.3281H3.5625H4.26562V19.0312ZM7.07812 19.0312V19.7344H6.375H5.67188V19.0312V18.3281H6.375H7.07812V19.0312ZM12.7031 19.0312V19.7344H10.5938H8.48438V19.0312V18.3281H10.5938H12.7031V19.0312Z" fill="white"/>
</svg>
