<svg width="24" height="24" viewBox="0 0 24 24" fill="none" xmlns="http://www.w3.org/2000/svg">
<path fill-rule="evenodd" clip-rule="evenodd" d="M16.3947 2.3984V4.79685L15.82 4.8109L15.2454 4.825L16.4205 6.00215L17.5956 7.1793L18.7707 6.00215L19.9457 4.825L19.3711 4.8109L18.7964 4.79685V2.3984V0H17.5956H16.3947V2.3984ZM9.92115 2.4524C9.60453 2.5319 9.15392 2.7984 8.93517 3.03555C8.82284 3.15735 8.65963 3.40735 8.57257 3.591C8.42917 3.89345 8.41421 3.9701 8.41421 4.4026C8.41421 4.85335 8.42472 4.9014 8.60109 5.258C8.82614 5.7131 9.11584 5.99655 9.58102 6.21675C9.88328 6.35985 9.96073 6.375 10.3906 6.375C10.8204 6.375 10.8979 6.35985 11.2001 6.21675C11.6653 5.99655 11.955 5.7131 12.1801 5.258C12.3566 4.901 12.3669 4.85375 12.3669 4.4C12.3669 3.94625 12.3566 3.899 12.1801 3.542C11.842 2.85835 11.2413 2.4572 10.5031 2.4221C10.2899 2.41195 10.028 2.4256 9.92115 2.4524ZM6.63798 6.44675C6.2328 6.57035 6.00044 6.7746 4.02487 8.74385L1.98716 10.775L1.00848 14.5C0.470208 16.5487 0.0178452 18.2644 0.00323504 18.3125C-0.0216822 18.3944 0.0667289 18.4 1.38099 18.4C2.15337 18.4 2.78531 18.4068 2.78531 18.4152C2.78531 18.4499 3.53543 23.6887 3.5617 23.8375L3.59042 24H4.38867C4.82773 24 5.18697 23.9932 5.18697 23.9848C5.18697 23.9503 5.93704 18.7116 5.96326 18.5631L5.99183 18.4013L7.78057 18.3881L9.56931 18.375L7.37319 15.3802L5.17702 12.3855L5.78379 11.7802L6.39056 11.175L7.71392 12.5145C8.54435 13.3552 9.10229 13.8812 9.21196 13.927C9.61264 14.0943 10.0746 13.9315 10.2753 13.552C10.4095 13.2984 10.4214 13.0705 10.3137 12.813C10.2641 12.6943 9.768 12.1585 8.91466 11.302L7.59249 9.97485L8.08393 9.47495C8.48276 9.0692 8.59553 8.92045 8.68244 8.6856C8.82459 8.30135 8.82414 7.84635 8.68124 7.46475C8.53344 7.07 8.119 6.65585 7.72398 6.50815C7.42718 6.39715 6.89851 6.36725 6.63798 6.44675ZM13.6408 9.71515C13.2823 9.9046 13.1038 10.3602 13.2438 10.7283C13.272 10.8024 13.553 11.1321 13.8683 11.4609C14.5659 12.1886 14.723 12.4695 14.7864 13.1021C14.8099 13.3371 14.869 13.6132 14.9178 13.716C15.0331 13.9589 15.3861 14.2669 15.6346 14.3412C15.7691 14.3815 16.39 14.4 17.605 14.4C19.6705 14.4 19.7085 14.3938 20.068 13.9942C20.1901 13.8584 20.3048 13.6805 20.3228 13.5987C20.3653 13.4049 20.4307 13.4095 20.4746 13.6093C20.5236 13.8321 20.968 14.2621 21.2289 14.3392C21.7066 14.4803 22.1391 14.3616 22.4639 14.0006C22.9125 13.502 22.9125 12.8981 22.4639 12.3994C22.1391 12.0384 21.7066 11.9198 21.2289 12.0608C20.9652 12.1386 20.5262 12.566 20.4661 12.8033C20.437 12.918 20.4142 12.4992 20.3975 11.541C20.3699 9.9618 20.3751 9.98705 20.028 9.7281C19.8343 9.58355 19.3596 9.58355 19.1659 9.7281C18.8344 9.9754 18.8229 10.018 18.8059 11.0535L18.7903 12H17.8075H16.8247L15.6934 10.8763C14.9814 10.1691 14.4944 9.7244 14.3793 9.67635C14.1227 9.5692 13.8943 9.5812 13.6408 9.71515ZM11.9917 17.2V18.4H17.9958H24V17.2V16H17.9958H11.9917V17.2Z" fill="white"/>
</svg>
