<svg width="24" height="24" viewBox="0 0 24 24" fill="none" xmlns="http://www.w3.org/2000/svg">
<path fill-rule="evenodd" clip-rule="evenodd" d="M5.08514 0.0311744C4.25089 0.145878 3.34153 0.486652 2.62771 0.952135C2.38609 1.10972 2.01746 1.42053 1.72305 1.71494C1.42864 2.00936 1.11783 2.37799 0.960241 2.6196C-0.523714 4.89511 -0.266031 7.87195 1.58312 9.81612C2.35086 10.6233 3.32067 11.2098 4.31012 11.4654L4.61543 11.5442L4.77983 11.3424C5.11177 10.9349 5.70445 10.318 6.02456 10.0468C7.08869 9.14514 8.40059 8.49361 9.77881 8.18238L10.2451 8.07712L10.3248 7.61041C10.5067 6.54661 10.8246 5.69658 11.339 4.89845L11.545 4.57891L11.4714 4.29511C11.377 3.93071 11.2538 3.61966 11.0183 3.15122C10.2607 1.64397 8.74535 0.481157 7.06511 0.117601C6.56139 0.00862837 5.56546 -0.0348198 5.08514 0.0311744ZM4.15981 2.39522C4.38283 2.51129 4.47588 2.65681 5.16025 3.96011C5.52948 4.66331 5.83606 5.23401 5.84147 5.22833C5.84692 5.2226 6.15124 4.64725 6.51785 3.94973C6.88441 3.25221 7.22988 2.63196 7.28554 2.57137C7.49851 2.33952 7.73294 2.2824 8.07808 2.37827C8.46099 2.48461 8.67856 2.82604 8.58467 3.17321C8.56001 3.26447 8.24375 3.82526 7.88193 4.41944L7.22406 5.49977L7.60476 5.52532C7.92886 5.54707 7.99861 5.56703 8.07362 5.65971C8.205 5.8219 8.18865 6.05891 8.03797 6.17742C7.92796 6.26399 7.84985 6.27479 7.33463 6.27479H6.755L6.68337 6.41336C6.64397 6.48959 6.6117 6.61486 6.6117 6.69175V6.83149L7.29705 6.84671C7.95168 6.86127 7.9864 6.86691 8.07207 6.97283C8.20481 7.13699 8.18931 7.37359 8.03797 7.49261C7.92637 7.5804 7.85065 7.58998 7.26755 7.58998H6.6209L6.60456 8.22071C6.5868 8.90531 6.55815 8.98859 6.26482 9.20757C6.08111 9.34472 5.59224 9.34472 5.40853 9.20757C5.1152 8.98859 5.08655 8.90531 5.06879 8.22071L5.05245 7.58998H4.4058C3.8227 7.58998 3.74698 7.5804 3.63538 7.49261C3.48404 7.37359 3.46854 7.13699 3.60128 6.97283C3.68695 6.86691 3.72167 6.86127 4.3763 6.84671L5.06165 6.83149V6.69175C5.06165 6.61486 5.02938 6.48959 4.98998 6.41336L4.91834 6.27479H4.33872C3.8235 6.27479 3.74539 6.26399 3.63538 6.17742C3.4847 6.05891 3.46835 5.8219 3.59973 5.65971C3.67465 5.56718 3.74459 5.54702 4.06657 5.52532L4.4453 5.49977L3.7894 4.41944C3.42866 3.82526 3.11334 3.26447 3.08864 3.17321C3.03143 2.96155 3.09798 2.70998 3.24876 2.56831C3.47709 2.35384 3.9189 2.26991 4.15981 2.39522ZM16.9034 2.9438C14.6211 3.19843 12.709 4.75749 11.9911 6.94892C11.9002 7.22647 11.8122 7.5688 11.7956 7.70966L11.7656 7.96575H12.0288C12.6373 7.96575 13.7939 8.18553 14.5684 8.44838L14.8924 8.55834L15.0008 8.44993C15.0783 8.37242 15.1634 8.34152 15.2992 8.34152C15.4037 8.34152 15.4892 8.33363 15.4892 8.324C15.4892 8.31437 15.4473 8.21169 15.396 8.09581C15.2707 7.81239 15.2106 7.34479 15.2566 7.01045C15.3627 6.23985 16.0015 5.59587 16.8983 5.35534C17.2653 5.25693 18.0572 5.2474 18.4719 5.33641C19.1677 5.48573 19.7869 5.90757 20.0252 6.39466C20.1809 6.71299 20.1964 7.11435 20.06 7.30036C19.8687 7.56147 19.4393 7.66762 19.1597 7.523C19.076 7.47974 18.9573 7.3206 18.8243 7.07368C18.6075 6.67076 18.4935 6.56019 18.195 6.46334C17.9507 6.384 17.4844 6.42538 17.2448 6.5476C16.697 6.82708 16.5651 7.37293 16.8844 8.03959L17.0177 8.31803L17.6978 8.34152C18.4554 8.36768 18.5628 8.4023 18.6288 8.64157C18.694 8.87755 18.6443 9.04256 18.4773 9.14439C18.3576 9.21739 18.2392 9.23364 17.8271 9.23378L17.3232 9.23397L17.3324 9.41011C17.3374 9.50701 17.3258 9.6708 17.3067 9.77413L17.2719 9.96202L17.7357 10.3933L18.1995 10.8246L18.5717 10.8756C18.8291 10.9108 19.0216 10.9118 19.1957 10.8787C19.3343 10.8525 19.5426 10.831 19.6587 10.831C19.84 10.831 19.8923 10.8547 20.0281 10.9987C20.1666 11.1455 20.1863 11.1974 20.1863 11.4145C20.1863 11.8247 19.8881 12.1387 19.4289 12.2121C19.3288 12.2281 19.2469 12.2496 19.2469 12.2599C19.2469 12.2701 19.3614 12.5017 19.5012 12.7745C19.6411 13.0474 19.8155 13.4403 19.8888 13.6477C19.962 13.8551 20.0344 14.0248 20.0496 14.0249C20.0649 14.025 20.253 13.9194 20.4677 13.7904C21.921 12.9169 22.8738 11.608 23.251 9.96638C23.3841 9.38723 23.3938 8.21991 23.2704 7.63695C22.8777 5.78179 21.6737 4.24729 19.9929 3.45968C19.0651 3.02487 17.9082 2.83168 16.9034 2.9438ZM10.5338 9.51095C9.93485 9.62195 9.56871 9.71918 9.10304 9.89085C7.43477 10.506 5.98088 11.8184 5.16184 13.4487C4.62849 14.5103 4.39828 15.4968 4.39715 16.7258C4.39626 17.6528 4.51707 18.3546 4.82732 19.2255C5.43606 20.9342 6.76186 22.4152 8.42468 23.2437C9.13554 23.5979 9.83358 23.8241 10.5807 23.9425C11.0645 24.0192 12.3047 24.0192 12.7884 23.9425C15.7048 23.4804 18.0792 21.3059 18.7707 18.4638C18.9315 17.803 18.9729 17.4468 18.9727 16.7258C18.9723 15.4612 18.7343 14.4773 18.1569 13.3531C17.159 11.4103 15.3317 10.0353 13.1172 9.56093C12.4382 9.41551 11.1802 9.39118 10.5338 9.51095ZM11.963 11.3775C12.0437 11.4801 12.0603 11.5678 12.0603 11.8913V12.2813L12.2834 12.3108C13.274 12.4418 14.1263 12.8005 14.5671 13.2717C14.8394 13.5629 14.9256 13.7578 14.9254 14.0822C14.9251 14.5215 14.6383 14.8232 14.221 14.8232C13.9412 14.8232 13.7794 14.7178 13.4226 14.3033C13.2613 14.1158 13.0702 13.9127 12.9979 13.8518C12.8179 13.7004 12.4975 13.5661 12.2717 13.5475L12.0838 13.5321L12.0712 14.6722C12.0614 15.5614 12.0717 15.8158 12.1182 15.8285C12.1509 15.8375 12.4314 15.9117 12.7414 15.9934C14.3834 16.4263 15.0665 17.1637 15.0665 18.5032C15.0665 19.9063 14.1841 20.7497 12.4596 20.9951L12.0838 21.0486L12.0603 21.5336C12.0391 21.972 12.0262 22.0274 11.9259 22.1083C11.7849 22.2223 11.6312 22.2223 11.4902 22.1083C11.3899 22.0273 11.377 21.9721 11.3558 21.5329L11.3323 21.0472L10.9856 21.0126C9.43498 20.858 8.30265 19.9204 8.30265 18.791C8.30265 18.2123 8.88317 17.8929 9.45931 18.1546C9.66256 18.2469 9.6665 18.2531 10.0315 19.0595C10.2381 19.5159 10.5328 19.7107 11.1327 19.7871L11.3558 19.8155V18.5449V17.2743L11.1561 17.2416C11.0463 17.2236 10.7557 17.1456 10.5103 17.0682C9.15123 16.6396 8.4896 15.9055 8.4911 14.8279C8.49209 14.1019 8.67358 13.6546 9.1711 13.1523C9.63583 12.683 10.2775 12.4066 11.1327 12.3072L11.3558 12.2813V11.8913C11.3558 11.4186 11.4469 11.2537 11.708 11.2537C11.8223 11.2537 11.8924 11.2877 11.963 11.3775ZM10.7878 13.6283C10.5246 13.7094 10.1557 14.0243 10.0624 14.2476C9.80525 14.863 10.3007 15.4815 11.1835 15.6471L11.3558 15.6795V14.6174V13.5553L11.1796 13.5586C11.0828 13.5604 10.9064 13.5917 10.7878 13.6283ZM12.0603 18.6141V19.8152L12.2651 19.7871C13.137 19.6676 13.6692 19.081 13.5181 18.4058C13.4202 17.9685 13.0811 17.6958 12.4007 17.5072L12.0603 17.4129V18.6141Z" fill="white"/>
</svg>
