<svg width="24" height="23" viewBox="0 0 24 23" fill="none" xmlns="http://www.w3.org/2000/svg">
<path fill-rule="evenodd" clip-rule="evenodd" d="M6.20737 0.0715938C3.26751 0.540721 0.900196 2.71674 0.203471 5.59033C-0.314488 7.72661 0.167492 9.99063 1.52323 11.7895C1.78713 12.1397 11.5012 21.8851 11.6815 21.9807C11.844 22.0667 12.157 22.0667 12.3195 21.9807C12.4999 21.8851 22.2139 12.1397 22.4778 11.7895C24.0521 9.70055 24.4313 7.02693 23.4935 4.62815C22.6585 2.49271 20.7502 0.79576 18.5468 0.229533C17.3545 -0.0768703 15.9958 -0.076495 14.8073 0.230565C13.9715 0.446436 12.841 0.998731 12.2597 1.47504C12.1472 1.56726 12.0305 1.64273 12.0005 1.64273C11.9705 1.64273 11.8538 1.56726 11.7413 1.47504C11.16 0.998731 10.0295 0.446436 9.19378 0.230565C8.31538 0.00357706 7.05411 -0.0635484 6.20737 0.0715938ZM12.3806 5.92403C12.5674 6.04881 12.704 6.29517 12.704 6.50733C12.7041 6.60884 12.4071 7.2527 11.7899 8.4892L10.8756 10.3207H12.6388C14.1685 10.3207 14.4234 10.3308 14.5626 10.3969C14.78 10.5 14.9195 10.7105 14.9447 10.9733C14.9647 11.1817 14.9103 11.302 13.7528 13.6058C12.4095 16.2797 12.4419 16.2311 12.0005 16.2311C11.6178 16.2311 11.2971 15.9168 11.297 15.5414C11.2969 15.4398 11.5939 14.796 12.2111 13.5595L13.1254 11.728H11.3622C9.83252 11.728 9.57767 11.7179 9.43845 11.6518C9.22126 11.5487 9.08157 11.3383 9.05638 11.0761C9.03645 10.8687 9.09236 10.7451 10.2483 8.44356C11.2907 6.36792 11.4835 6.01381 11.6205 5.92309C11.837 5.77974 12.1652 5.78012 12.3806 5.92403Z" fill="#157CEC"/>
</svg>
