<svg width="23" height="24" viewBox="0 0 23 24" fill="none" xmlns="http://www.w3.org/2000/svg">
<path fill-rule="evenodd" clip-rule="evenodd" d="M7.82966 0.0687684C7.30686 0.181053 6.77746 0.476557 6.3723 0.882237C5.72048 1.53485 5.4524 2.22591 5.49793 3.13633C5.51598 3.49784 5.55353 3.7136 5.63872 3.94539C5.97042 4.84789 6.68468 5.54152 7.5718 5.82259C7.838 5.90693 8.01067 5.92657 8.48602 5.92657C8.96137 5.92657 9.13404 5.90693 9.40024 5.82259C10.2996 5.53763 11.0668 4.777 11.3524 3.88716C11.4892 3.46113 11.5195 2.74532 11.419 2.31658C11.2214 1.47367 10.6132 0.705628 9.84563 0.329907C9.19278 0.0103052 8.51223 -0.0778349 7.82966 0.0687684ZM0.270043 0.593859C-0.0202101 0.773796 0.000183947 -0.108075 0.000371479 12.2629C0.000512128 23.3795 0.00196551 23.557 0.0920748 23.7047C0.213596 23.904 0.412286 24 0.70343 24C0.994574 24 1.19326 23.904 1.31479 23.7047C1.40489 23.557 1.40635 23.3793 1.40649 12.2396C1.40668 1.84901 1.40039 0.91393 1.32998 0.794753C1.28783 0.72335 1.19491 0.630428 1.1235 0.58828C0.946144 0.483496 0.442713 0.486778 0.270043 0.593859ZM15.7456 0.6173C15.6771 0.675201 15.598 0.768639 15.5698 0.824946C15.5331 0.898271 15.5185 4.15275 15.5185 12.2768V23.6263L15.6766 23.7988C15.8224 23.9579 15.8586 23.9729 16.143 23.991C16.398 24.0072 16.4793 23.9933 16.6128 23.9108C16.9529 23.7006 16.925 24.7466 16.925 12.2346C16.925 -0.0639105 16.9453 0.832541 16.6617 0.609471C16.4765 0.463805 15.9216 0.46854 15.7456 0.6173ZM8.18128 6.70015L5.60271 6.72359L5.38846 6.84956C5.27059 6.91885 5.11949 7.05599 5.05259 7.1543C4.87696 7.41258 2.7194 13.9858 2.7194 14.2627C2.7194 15.2139 3.90409 15.6542 4.53378 14.937C4.62778 14.8299 4.77405 14.508 4.97176 13.9728C5.15704 13.4712 5.28264 13.1915 5.30599 13.2283C5.32657 13.2607 5.34373 15.4331 5.34415 18.0558C5.34485 22.715 5.34701 22.8302 5.439 23.076C5.56666 23.4172 5.80923 23.6866 6.13136 23.8448C6.49771 24.0247 6.99411 24.0319 7.32665 23.8622C7.63017 23.7072 7.86505 23.4652 8.01189 23.1561L8.1344 22.8982L8.14799 19.7922L8.16164 16.6862H8.46291H8.76418L8.77745 19.8157L8.79076 22.9451L8.90436 23.1759C9.16217 23.6998 9.59902 23.9746 10.1738 23.9746C10.7486 23.9746 11.1855 23.6998 11.4433 23.1759L11.5569 22.9451L11.5696 18.0576C11.5766 15.3694 11.5977 13.1703 11.6165 13.1706C11.6353 13.171 11.7428 13.4294 11.8554 13.7449C12.1632 14.6072 12.3415 14.9523 12.5566 15.1022C13.0628 15.4551 13.7672 15.2961 14.0639 14.762C14.2968 14.3429 14.2964 14.3412 13.138 10.8259C12.5645 9.08532 12.0608 7.56833 12.0187 7.45477C11.8623 7.03301 11.4513 6.73484 10.9708 6.69443C10.8548 6.68467 9.59949 6.68725 8.18128 6.70015ZM20.7845 6.86363C20.6366 6.96724 18.8823 9.82931 18.8823 9.967C18.8823 10.0307 18.9071 10.1076 18.9374 10.1378C18.9778 10.1783 19.504 10.1929 20.9107 10.1929C22.6765 10.1929 22.8354 10.1864 22.9111 10.1107C22.9801 10.0417 22.9848 10.0059 22.9402 9.88782C22.8491 9.64633 21.2362 7.05866 21.0921 6.92284C20.9338 6.77347 20.9176 6.77038 20.7845 6.86363ZM19.0937 12.405C18.9644 12.4312 18.8502 12.5853 18.8788 12.6949C18.9238 12.8669 20.6621 15.6287 20.7815 15.7178C20.882 15.7928 20.929 15.8019 21.0149 15.7627C21.1374 15.7069 22.9145 12.8644 22.9557 12.6583C23.0074 12.3995 22.9894 12.397 21.0084 12.3901C20.0131 12.3866 19.1515 12.3933 19.0937 12.405Z" fill="white"/>
</svg>
