<svg width="24" height="24" viewBox="0 0 24 24" fill="none" xmlns="http://www.w3.org/2000/svg">
<path fill-rule="evenodd" clip-rule="evenodd" d="M10.7947 0.061473C10.4062 0.155821 10.1097 0.325667 9.80849 0.626296C8.9761 1.45705 8.9761 2.75682 9.80849 3.58542C10.6452 4.41828 11.9399 4.41884 12.7682 3.58673C13.601 2.75012 13.6016 1.45785 12.7695 0.625733C12.2343 0.0904997 11.5178 -0.114187 10.7947 0.061473ZM10.1391 4.29781C9.83391 4.40735 9.62557 4.55825 9.45553 4.79295C9.17193 5.18451 9.17858 5.07065 9.18116 9.4652L9.18355 13.4777L11.2913 11.349L13.3992 9.22019V7.99193C13.3992 6.93154 13.3868 6.71518 13.3086 6.40939C13.0614 5.4427 12.3833 4.68974 11.4755 4.37373C11.0098 4.21162 10.4655 4.18067 10.1391 4.29781ZM17.9712 7.15484C17.6943 7.21445 17.3842 7.33449 17.1932 7.45594C17.0748 7.53125 14.2727 10.336 10.9662 13.6888L4.95453 19.7848H3.43479C1.81708 19.7848 1.59898 19.8066 1.16016 20.0118C0.821593 20.1701 0.368422 20.6235 0.207767 20.9648C-0.385942 22.2258 0.348258 23.6937 1.70482 23.9579C1.89478 23.9949 2.63109 24.0069 4.06751 23.9963C6.1028 23.9814 6.16029 23.9784 6.40033 23.8766C6.53571 23.8191 6.72891 23.7176 6.82973 23.6508C6.9305 23.5841 9.71682 20.7878 13.0215 17.4368L19.0301 11.3441H20.5499C21.4887 11.3441 22.1647 11.3241 22.3182 11.2918C23.1567 11.1152 23.8113 10.4278 23.9586 9.56898C24.1453 8.48008 23.4086 7.40535 22.3182 7.17604C22.0802 7.12596 18.1933 7.10701 17.9712 7.15484ZM16.6542 15.6311C16.3652 15.7569 16.1822 16.13 16.2641 16.4265C16.3635 16.7866 16.6356 16.9712 17.0668 16.9712H17.3143L15.0799 19.2104C13.851 20.4419 12.8118 21.517 12.7706 21.5995C12.4849 22.1723 13.1218 22.8092 13.6946 22.5235C13.7771 22.4823 14.8523 21.4432 16.0838 20.2142L18.3229 17.9798L18.323 18.261C18.323 18.435 18.3543 18.6043 18.4051 18.7053C18.6573 19.2073 19.3953 19.2073 19.6475 18.7053C19.7193 18.5626 19.7295 18.3906 19.7296 17.3328C19.7297 16.2132 19.7227 16.1097 19.6353 15.9384C19.5745 15.8192 19.4749 15.7196 19.3558 15.6588C19.1844 15.5714 19.0829 15.5646 17.9848 15.5663C17.0987 15.5676 16.7623 15.5841 16.6542 15.6311Z" fill="white"/>
</svg>
