<svg width="24" height="24" viewBox="0 0 24 24" fill="none" xmlns="http://www.w3.org/2000/svg">
<path fill-rule="evenodd" clip-rule="evenodd" d="M12.2403 0.0622177C11.6274 0.279003 11.4035 1.20338 11.8645 1.61415C12.047 1.77675 12.2507 1.84763 12.6625 1.89187C13.434 1.97472 14.5479 2.21365 15.3835 2.47552C17.7699 3.22345 19.415 4.60297 20.3657 6.65335C20.9002 7.80614 21.3427 9.59311 21.4293 10.9484C21.4851 11.8216 21.7513 12.153 22.397 12.153C22.7132 12.153 22.933 12.0679 23.0958 11.8826C23.2944 11.6563 23.3347 11.4586 23.335 10.7078C23.3358 8.70195 22.8704 6.9816 21.8837 5.34331C20.2304 2.59815 17.5914 0.709711 14.6378 0.158436C13.7722 -0.00313206 12.5623 -0.051687 12.2403 0.0622177ZM3.7907 1.21876C3.00589 1.30766 1.90231 1.86654 1.22249 2.51938C0.801542 2.92358 0.565101 3.2462 0.34597 3.71533C0.0484482 4.35222 -0.00296845 4.60776 0.000127808 5.43361C0.00247346 6.0668 0.0188461 6.22044 0.126934 6.62276C0.427083 7.74042 1.65085 10.2684 2.75064 12.0427C5.78591 16.9396 10.2633 20.8004 15.8292 23.3202C17.0154 23.8572 17.6358 24.0372 18.1514 23.9938C19.7349 23.8605 21.5338 22.5211 22.3051 20.9011C22.8759 19.7022 22.7023 18.7649 21.7526 17.9181C21.1041 17.3398 18.9996 15.7912 18.2534 15.3432C17.5133 14.8988 16.6872 14.7229 16.0762 14.8796C15.4418 15.0423 14.9907 15.3742 14.4562 16.0716C13.9691 16.707 13.7719 16.8335 13.2681 16.8335C12.9349 16.8335 12.6145 16.7293 12.0043 16.4224C9.99034 15.4095 8.31883 13.7517 7.42284 11.8785C7.01432 11.0244 6.92908 10.4486 7.14066 9.97249C7.27023 9.68083 7.43978 9.50102 7.94789 9.11623C8.63714 8.59423 8.9143 8.24248 9.05687 7.70889C9.22805 7.06801 9.04537 6.45252 8.31649 5.21448C7.56194 3.93282 6.19081 2.25451 5.40324 1.64844C4.93941 1.29157 4.40512 1.14919 3.7907 1.21876ZM12.8971 3.06437C12.8713 3.07314 12.7698 3.09373 12.6715 3.11025C12.1733 3.19371 11.8372 3.91635 12.0545 4.43652C12.2064 4.80001 12.4126 4.91804 13.1349 5.05484C15.7079 5.54208 17.025 6.40814 17.7062 8.06074C17.9675 8.69486 18.2184 9.73713 18.2934 10.5002C18.3363 10.9372 18.4081 11.1489 18.5724 11.3232C18.9194 11.6911 19.7156 11.6392 19.9958 11.2304C20.1556 10.9972 20.1922 10.8079 20.1912 10.2191C20.1889 8.74938 19.7859 7.47874 18.934 6.25459C18.5986 5.77275 17.6497 4.82356 17.1651 4.48517C16.4237 3.96754 15.4929 3.53556 14.6665 3.32553C14.3701 3.25024 13.052 3.03256 12.9675 3.04499C12.9546 3.04692 12.9229 3.05564 12.8971 3.06437ZM13.0144 6.30502C12.6037 6.45266 12.3605 6.80455 12.3586 7.25384C12.3574 7.54817 12.4423 7.73258 12.6508 7.88848C12.8245 8.01838 12.9687 8.06989 13.5304 8.20275C14.2646 8.37637 14.7177 8.70373 14.9846 9.25346C15.1231 9.53892 15.1557 9.65217 15.291 10.3179C15.3726 10.7192 15.5591 10.9911 15.8464 11.1274C16.3101 11.3475 16.8898 11.099 17.0835 10.5971C17.1953 10.3075 17.1925 9.5522 17.0781 9.1632C16.7126 7.91953 15.648 6.79334 14.4337 6.36573C14.059 6.23376 13.3026 6.20144 13.0144 6.30502Z" fill="white"/>
</svg>
