<svg width="24" height="22" viewBox="0 0 24 22" fill="none" xmlns="http://www.w3.org/2000/svg">
<path fill-rule="evenodd" clip-rule="evenodd" d="M18.1266 0.0647642C17.6224 0.174333 17.2367 0.391688 16.8443 0.787262C16.2913 1.34482 16.0504 1.91031 16.0489 2.65467C16.0475 3.34963 16.2778 3.94674 16.7427 4.45334C17.2692 5.02699 17.9105 5.30666 18.6994 5.30666C19.0459 5.30666 19.2485 5.28109 19.4737 5.20896C20.5891 4.85168 21.3507 3.82746 21.3507 2.68461C21.3507 1.92054 21.1043 1.33182 20.5578 0.789843C19.8847 0.122341 19.032 -0.131991 18.1266 0.0647642ZM4.41987 0.135949C3.9678 0.254387 3.65711 0.427397 3.30194 0.758544C2.77165 1.25294 2.49873 1.82303 2.45491 2.52793C2.36528 3.96917 3.47082 5.20906 4.91418 5.28606C5.71325 5.32867 6.36973 5.10174 6.90997 4.59618C7.45697 4.08428 7.74589 3.43306 7.74701 2.70939C7.74823 1.94738 7.49343 1.32919 6.96234 0.805703C6.30122 0.154062 5.32871 -0.102146 4.41987 0.135949ZM11.6138 0.32726C11.5622 0.357151 11.4835 0.426365 11.4389 0.481079C11.3626 0.574647 11.3578 1.18621 11.3568 10.7681L11.3557 20.9556L11.4691 21.0779C11.6051 21.2246 11.7658 21.2712 12.0192 21.2371C12.251 21.2061 12.3731 21.1011 12.4345 20.8801C12.4992 20.6473 12.4992 0.879046 12.4345 0.646254C12.4087 0.553343 12.3451 0.438894 12.2933 0.391969C12.1796 0.289158 11.7503 0.248239 11.6138 0.32726ZM2.52543 6.02756C2.17312 6.13596 2.01255 6.3665 1.76371 7.12119C0.457608 11.0822 0 12.5166 0 12.6496C0 13.1309 0.428562 13.5552 0.914654 13.5552C1.45316 13.5552 1.64869 13.3437 2.00312 12.3778L2.27584 11.6346L2.30076 15.9383C2.31943 19.1664 2.34008 20.2844 2.38344 20.412C2.46044 20.6387 2.78211 20.9973 3.01486 21.116C3.59433 21.4116 4.34442 21.1644 4.66064 20.5736C4.76153 20.3852 4.76313 20.3465 4.78631 17.5907L4.80977 14.7987L5.0778 14.7847L5.34588 14.7706L5.35935 17.5532L5.37286 20.3358L5.51364 20.5902C5.99466 21.4593 7.19302 21.4598 7.67217 20.591L7.81294 20.3358L7.8364 15.9953C7.85625 12.3248 7.86953 11.6765 7.92246 11.7955C7.95686 11.873 8.08726 12.2078 8.21222 12.5396C8.33718 12.8714 8.48851 13.1955 8.54853 13.2598C9.09731 13.8479 10.0695 13.5142 10.1256 12.7185C10.1427 12.4746 10.0653 12.2124 9.19511 9.56662C8.67307 7.97939 8.20866 6.60685 8.16305 6.51652C8.05451 6.30142 7.90768 6.16862 7.64871 6.05121C7.44496 5.95887 7.35519 5.95558 5.09132 5.95774C3.18669 5.95952 2.70375 5.97266 2.52543 6.02756ZM16.4444 6.08814C16.0675 6.26073 16.0036 6.3826 14.7027 9.40942C14.0278 10.9798 13.4614 12.3406 13.4442 12.4333C13.4009 12.6658 13.4904 12.9617 13.664 13.1593C13.911 13.4407 14.23 13.5461 14.5647 13.4571C14.8564 13.3796 15.0476 13.2068 15.2256 12.86C15.3142 12.6875 15.3877 12.5615 15.389 12.5802C15.3902 12.5987 15.2753 13.261 15.1336 14.0519C14.9806 14.9056 14.8883 15.54 14.9064 15.6135C15.0031 16.0062 15.1933 16.0891 15.9972 16.0891H16.6063L16.621 18.3298C16.6322 20.0411 16.6502 20.6037 16.6969 20.7112C16.8399 21.0405 17.2217 21.2948 17.5758 21.2967C17.8767 21.2984 18.23 21.0967 18.3834 20.8357L18.5117 20.6174L18.5252 18.3532L18.5386 16.0891H18.6994H18.8603L18.8737 18.3532L18.8871 20.6174L19.0158 20.8362C19.3939 21.4794 20.2992 21.4396 20.6606 20.7639C20.7626 20.5733 20.7644 20.5365 20.7787 18.3298L20.7934 16.0891H21.452C22.2506 16.0891 22.3943 16.0408 22.5337 15.7256L22.6249 15.5196L22.3884 14.0586C22.2583 13.255 22.1604 12.5891 22.1706 12.5788C22.1809 12.5686 22.2634 12.7073 22.3539 12.8871C22.4445 13.0669 22.5837 13.2688 22.6634 13.3358C23.0241 13.6393 23.578 13.5223 23.8702 13.0807C23.9769 12.9195 24.0003 12.8325 24 12.5979C23.9996 12.3312 23.9168 12.1111 22.7839 9.36348C21.7919 6.95817 21.5361 6.37926 21.3944 6.21953L21.2207 6.02381L18.9277 6.01241C16.7793 6.00176 16.6227 6.00649 16.4444 6.08814Z" fill="white"/>
</svg>
