<svg width="25" height="24" viewBox="0 0 25 24" fill="none" xmlns="http://www.w3.org/2000/svg">
<path fill-rule="evenodd" clip-rule="evenodd" d="M5.87212 0.0723863C5.19136 0.25531 4.67267 0.736477 4.41878 1.42061C4.2793 1.79645 4.2245 2.70811 4.30848 3.25658C4.42129 3.99375 4.86684 4.60932 5.51933 4.92961C5.82903 5.0816 5.87554 5.08983 6.42446 5.08983C6.97856 5.08983 7.01753 5.08275 7.34259 4.92273C7.96068 4.61841 8.40398 4.03684 8.53185 3.3625C8.6091 2.95522 8.59448 2.04552 8.50433 1.64909C8.23958 0.485095 7.03079 -0.238966 5.87212 0.0723863ZM4.75851 6.0935C4.54781 6.171 3.96503 6.53514 2.68155 7.3913C1.42098 8.23214 1.26573 8.35303 1.14684 8.58603C1.0385 8.79844 0.447843 12.1223 0.44719 12.5233C0.446135 13.1859 1.31214 13.4388 1.67673 12.8824C1.71877 12.8182 1.88828 12.0897 2.05342 11.2633C2.21852 10.437 2.38813 9.66896 2.43032 9.55665C2.52962 9.29226 2.72897 9.10592 3.28161 8.76077C3.78723 8.44499 3.95202 8.41506 4.14158 8.60456L4.26599 8.72897L4.25228 12.7608L4.23856 16.7925L4.08603 17.0688C4.0021 17.2207 3.05935 18.5719 1.99104 20.0713C0.672705 21.9217 0.0381474 22.8536 0.0159474 22.9719C-0.0600449 23.3771 0.139052 23.7354 0.5384 23.9121C0.906157 24.0747 1.27853 23.9695 1.56035 23.6233C1.94102 23.1555 5.73174 17.9994 5.77117 17.8957C5.79713 17.8274 5.88759 17.1896 5.97227 16.4784C6.13646 15.0988 6.17042 14.9832 6.43978 14.8873C6.55203 14.8473 6.80151 14.9389 8.13376 15.5097C9.79323 16.2206 9.92352 16.2988 10.1457 16.7172C10.265 16.9418 10.2658 16.9545 10.2806 18.7639L10.2955 20.5846H11.1489H12.0023L11.9878 18.2365L11.9734 15.8885L11.8318 15.6002C11.5915 15.1108 11.4419 15.0183 9.3314 14.0552C7.80046 13.3566 7.39242 13.1505 7.34204 13.0507C7.29463 12.9567 7.27856 12.4688 7.278 11.1072C7.27725 9.29301 7.2775 9.28905 7.39026 9.16092C7.45244 9.09025 7.57665 9.01838 7.6663 9.0012C7.82221 8.97126 7.86274 9.00271 8.59649 9.7226C9.01839 10.1366 9.45832 10.5236 9.57409 10.5827C9.7754 10.6854 9.85089 10.6901 11.311 10.6901C12.818 10.6901 12.8397 10.6886 13.0082 10.5752C13.3485 10.3462 13.3669 9.9108 13.0489 9.60592L12.8963 9.45951L11.6563 9.43214C10.385 9.40401 10.2762 9.38744 9.98073 9.17704C9.90026 9.11973 9.37987 8.56092 8.82427 7.9352C7.45465 6.39265 7.34013 6.27663 7.05123 6.13936C6.81401 6.0266 6.74852 6.02017 5.87092 6.02304C5.22491 6.02515 4.88588 6.04664 4.75851 6.0935ZM19.9594 14.6155C19.7404 14.7352 19.7334 14.7778 19.7334 15.9763C19.7334 17.4407 19.6912 17.6154 19.2764 17.8683C19.1109 17.9692 19.0414 17.9725 17.0663 17.9727C15.7039 17.9728 14.9741 17.9913 14.8674 18.0285C14.582 18.128 14.5601 18.2369 14.5601 19.5541C14.5601 20.844 14.5413 20.953 14.2774 21.1931C14.0155 21.4314 13.9358 21.4385 11.5184 21.4385H9.24501L9.11498 21.593L8.98494 21.7475V22.8738V24H16.3469H23.709L23.8558 23.8532L24.0026 23.7064V19.2787V14.8511L23.8558 14.7043L23.709 14.5575L21.8844 14.559C20.6611 14.56 20.0267 14.5786 19.9594 14.6155Z" fill="#157CEC"/>
</svg>
