<svg width="21" height="24" viewBox="0 0 21 24" fill="none" xmlns="http://www.w3.org/2000/svg">
<path fill-rule="evenodd" clip-rule="evenodd" d="M8.43139 0.0174736C5.79847 0.182365 3.56373 0.811766 2.15605 1.78496C1.2253 2.42838 0.481187 3.40004 0.359338 4.13101L0.317564 4.38125H3.05658C4.56302 4.38125 5.81682 4.38872 5.84285 4.39793C5.86887 4.40714 5.91038 4.31578 5.93507 4.195C5.99753 3.88964 6.15521 3.73876 6.57668 3.58108C7.35262 3.29074 8.04495 3.21753 10.0329 3.2154C11.98 3.2134 12.5086 3.26284 13.3164 3.52282C13.7579 3.66489 14.1368 4.00082 14.1368 4.25012C14.1368 4.37838 14.1977 4.38125 16.9062 4.38125H19.6755V4.21515C19.6755 3.69793 19.0483 2.71419 18.3519 2.1391C17.0898 1.09691 15.321 0.447952 12.9023 0.139657C12.1341 0.0417635 9.28634 -0.0361109 8.43139 0.0174736ZM0.334581 5.66581C0.36134 6.55239 0.431473 6.75638 0.761455 6.90673C0.997948 7.0145 5.25468 7.0145 5.49118 6.90673C5.82116 6.75638 5.89129 6.55239 5.91805 5.66581L5.94274 4.84836H3.12632H0.30989L0.334581 5.66581ZM14.1483 5.71452C14.1697 6.55906 14.1748 6.58529 14.3552 6.76552L14.5402 6.95037H16.9132H19.286L19.4807 6.73243C19.6739 6.51635 19.6755 6.50761 19.6755 5.68142V4.84836H16.9009H14.1262L14.1483 5.71452ZM0.312359 9.48813C0.0429686 9.6344 -0.0242958 9.93929 0.00713424 10.8715C0.0368293 11.7493 0.0996226 11.9574 0.36541 12.0585C0.610444 12.1516 2.76791 12.1399 2.94721 12.0444C3.23235 11.8924 3.25544 11.7975 3.25764 10.7655L3.25978 9.77614L3.06472 9.58108L2.86967 9.38603L1.68007 9.3887C0.771532 9.39077 0.448356 9.41426 0.312359 9.48813ZM4.61821 9.45009C4.30678 9.58035 4.26073 9.75084 4.26073 10.774V11.7319L4.45579 11.9269L4.65084 12.122H5.88675C7.09704 12.122 7.12661 12.1186 7.30992 11.961L7.49716 11.7999V10.7616C7.49716 9.34472 7.58605 9.42407 5.97737 9.40485C5.30847 9.39684 4.69688 9.41719 4.61821 9.45009ZM8.83177 9.46664C8.55884 9.62312 8.53582 9.72095 8.53362 10.7318C8.53242 11.2702 8.55017 11.7593 8.57292 11.8187C8.66848 12.0677 8.94755 12.122 10.133 12.122C11.3185 12.122 11.5975 12.0677 11.6931 11.8187C11.7159 11.7593 11.7345 11.2654 11.7345 10.7211V9.73156L11.5292 9.5588C11.3251 9.38696 11.3173 9.38603 10.1446 9.38803C9.38323 9.38937 8.91792 9.41719 8.83177 9.46664ZM13.0705 9.46958C12.7734 9.62379 12.7308 9.80683 12.7506 10.8434C12.7689 11.7995 12.769 11.8003 12.9561 11.9611C13.1394 12.1186 13.1694 12.122 14.3793 12.122H15.6152L15.8102 11.9269L16.0053 11.7319V10.7629C16.0053 9.83499 15.9985 9.78588 15.8444 9.60664L15.6835 9.4194L14.4598 9.40151C13.5618 9.38837 13.1919 9.40652 13.0705 9.46958ZM17.3637 9.45223C17.052 9.57801 17.0063 9.74924 17.0063 10.7896C17.0063 11.6754 17.0185 11.7762 17.1416 11.9084C17.337 12.1182 17.4574 12.1331 18.7695 12.1097C20.2946 12.0825 20.2093 12.161 20.2093 10.7854C20.2093 10.242 20.1906 9.74871 20.1679 9.68932C20.0722 9.43995 19.7937 9.38583 18.6278 9.39023C18.0112 9.39257 17.4424 9.42046 17.3637 9.45223ZM2.35591 13.6204C2.19616 13.7801 2.19209 13.8099 2.19209 14.8099C2.19209 15.8263 2.19369 15.8371 2.36432 15.9974C2.53395 16.1568 2.55497 16.1592 3.79362 16.1592C5.03227 16.1592 5.05329 16.1568 5.22292 15.9974C5.39355 15.8371 5.39515 15.8263 5.39515 14.8099C5.39515 13.8099 5.39108 13.7801 5.23133 13.6204C5.06891 13.4579 5.05723 13.4566 3.79362 13.4566C2.53001 13.4566 2.51833 13.4579 2.35591 13.6204ZM6.61672 13.6176L6.42947 13.7787V14.817C6.42947 16.2451 6.32651 16.1592 8.03861 16.1592H9.34379L9.50488 15.9719C9.65909 15.7926 9.6659 15.7438 9.6659 14.8157V13.8467L9.47085 13.6516L9.27579 13.4566H8.03988C6.82959 13.4566 6.80003 13.4599 6.61672 13.6176ZM10.9671 13.5337C10.6883 13.6862 10.6669 13.7783 10.6669 14.8257C10.6669 15.8247 10.6687 15.8373 10.8389 15.9974C11.0049 16.1536 11.0503 16.1599 12.1509 16.1804C13.3976 16.2035 13.5425 16.1863 13.7381 15.9907C13.858 15.8708 13.8699 15.7655 13.8699 14.8216C13.8699 13.8091 13.866 13.7802 13.7061 13.6204C13.544 13.4583 13.53 13.4566 12.3214 13.4586C11.5674 13.4599 11.0496 13.4886 10.9671 13.5337ZM15.0915 13.6175C14.9052 13.7776 14.9041 13.7831 14.8826 14.7123C14.8484 16.1917 14.8723 16.2117 16.6362 16.1803L17.8189 16.1592L17.9798 15.9719C18.1339 15.7927 18.1407 15.7436 18.1407 14.8157V13.8467L17.9456 13.6516L17.7506 13.4566H16.5146C15.3048 13.4566 15.2747 13.46 15.0915 13.6175ZM0.357002 17.5352C0.0774014 17.6928 0.056715 17.7823 0.056715 18.8337C0.056715 20.2468 -0.0441148 20.1572 1.5757 20.1836L2.83978 20.2042L3.04978 20.0275L3.25978 19.8508V18.8596C3.25978 17.9081 3.2533 17.8607 3.09889 17.681L2.93794 17.4938L1.71423 17.4769C0.899521 17.4656 0.44582 17.4852 0.357002 17.5352ZM4.62775 17.5375C4.34875 17.6901 4.32746 17.7819 4.32746 18.8337C4.32746 20.2395 4.23931 20.1569 5.76731 20.1841C7.07936 20.2075 7.19974 20.1926 7.3952 19.9828C7.51885 19.8501 7.53053 19.7499 7.53053 18.8217V17.8059L7.3252 17.6332C7.12107 17.4613 7.11333 17.4604 5.94054 17.4624C5.21658 17.4637 4.7097 17.4926 4.62775 17.5375ZM8.93187 17.5054C8.87681 17.5267 8.76424 17.6056 8.68163 17.6808C8.53889 17.8106 8.53148 17.8659 8.53148 18.8012C8.53148 19.3423 8.55017 19.8337 8.57292 19.8931C8.66848 20.1421 8.94755 20.1964 10.133 20.1964C11.3185 20.1964 11.5975 20.1421 11.6931 19.8931C11.7159 19.8337 11.7345 19.3423 11.7345 18.8012C11.7345 17.8302 11.7323 17.8152 11.5625 17.6555C11.3952 17.4982 11.3586 17.4934 10.2112 17.4802C9.5626 17.4728 8.98692 17.4841 8.93187 17.5054ZM13.0705 17.544C12.7734 17.6982 12.7308 17.8812 12.7506 18.9177C12.7689 19.8739 12.769 19.8747 12.9561 20.0355C13.1394 20.193 13.1694 20.1964 14.3793 20.1964H15.6152L15.8102 20.0013L16.0053 19.8063V18.8373C16.0053 17.9094 15.9985 17.8603 15.8444 17.681L15.6835 17.4938L14.4598 17.4759C13.5618 17.4628 13.1919 17.4809 13.0705 17.544ZM17.3637 17.5266C17.0516 17.6525 17.0061 17.8234 17.0084 18.86C17.0098 19.5166 17.0367 19.8635 17.0918 19.9352C17.2688 20.1658 17.454 20.1964 18.6732 20.1964C19.8674 20.1964 19.8837 20.1944 20.0455 20.0325C20.2048 19.8733 20.2093 19.8414 20.2093 18.8702C20.2093 18.321 20.1906 17.8231 20.1679 17.7637C20.0722 17.5143 19.7937 17.4602 18.6278 17.4646C18.0112 17.467 17.4424 17.4948 17.3637 17.5266ZM2.33716 21.4852C2.2013 21.6299 2.19209 21.7043 2.19209 22.656C2.19209 23.6462 2.19629 23.6766 2.35591 23.8362L2.51967 24H10.0595H17.5994L17.7866 23.8391C17.9716 23.6801 17.9741 23.668 17.996 22.7977C18.0206 21.8195 17.9969 21.6542 17.8053 21.4626C17.6757 21.3329 17.552 21.3308 10.0779 21.3308H2.4823L2.33716 21.4852Z" fill="#157CEC"/>
</svg>
