<svg width="17" height="24" viewBox="0 0 17 24" fill="none" xmlns="http://www.w3.org/2000/svg">
<path fill-rule="evenodd" clip-rule="evenodd" d="M8.07353 0.104315C7.67613 0.372116 5.58766 3.16494 4.16947 5.32508C1.8808 8.81109 0.474435 11.9285 0.0997025 14.3464C-0.460918 17.9637 1.37928 21.4915 4.69864 23.1632C5.36812 23.5003 6.36013 23.8083 7.2093 23.9426C7.69345 24.0191 9.11915 24.0191 9.6033 23.9426C11.4619 23.6486 13.0664 22.8379 14.3669 21.5356C16.2496 19.6505 17.1211 16.9799 16.7129 14.3464C16.2226 11.1833 13.9742 6.85838 10.2779 1.96878C9.35353 0.745956 8.93031 0.233169 8.73907 0.104315C8.53267 -0.0347718 8.27993 -0.0347718 8.07353 0.104315ZM3.48722 13.2864C3.55458 13.3659 3.5674 13.4874 3.56754 14.0472C3.56768 14.7677 3.63852 15.2485 3.83797 15.8834C4.37991 17.6083 5.81913 19.1018 7.6343 19.8228C8.0863 20.0024 8.86379 20.2029 9.31058 20.2552C9.96198 20.3315 10.0026 20.8337 9.3686 20.973C7.36815 21.4126 5.29043 20.8209 3.87449 19.4084C2.5484 18.0856 2.06143 16.3102 2.52878 14.5021C2.72842 13.7296 2.91299 13.2737 3.05583 13.2C3.20041 13.1255 3.38161 13.1618 3.48722 13.2864Z" fill="white"/>
</svg>
